<svg width="161" height="31" viewBox="0 0 161 31" fill="none" xmlns="http://www.w3.org/2000/svg">
<path d="M14.1355 0.969727C15.4986 0.969727 16.7561 1.07532 17.9081 1.3889C19.06 1.59689 20.0039 2.01607 20.8423 2.54084C21.6807 3.06561 22.3078 3.79837 22.727 4.74232C23.1462 5.68627 23.3542 6.83821 23.3542 8.09574C23.3542 9.56126 23.0406 10.8188 22.3078 11.7627C21.6807 12.7067 20.6311 13.545 19.3736 14.1722C21.1559 14.697 22.5158 15.6377 23.3542 16.8953C24.1925 18.1528 24.7173 19.7239 24.7173 21.5062C24.7173 22.9717 24.4037 24.2293 23.8789 25.2788C23.3542 26.3252 22.5158 27.2691 21.5751 27.8995C20.6311 28.5266 19.4792 29.0514 18.2216 29.365C16.9641 29.6786 15.7066 29.8898 14.449 29.8898H0.408203V0.969727H14.1355ZM13.2971 12.7067C14.449 12.7067 15.393 12.3931 16.1258 11.8683C16.8585 11.3436 17.1721 10.4028 17.1721 9.24768C17.1721 8.62051 17.0665 7.99015 16.8585 7.57097C16.6505 7.15179 16.3337 6.83821 15.9146 6.52463C15.4954 6.31664 15.0762 6.10545 14.5514 5.99985C14.0267 5.89426 13.5051 5.89426 12.8747 5.89426H6.80146V12.7067H13.2971ZM13.6107 25.0708C14.2379 25.0708 14.8682 24.9652 15.393 24.8628C15.9178 24.7604 16.4393 24.5492 16.8585 24.2357C17.2777 23.9221 17.5913 23.6085 17.9049 23.0837C18.1192 22.5558 18.3272 21.9286 18.3272 21.1926C18.3272 19.7271 17.9081 18.6776 17.0697 17.9448C16.2313 17.3176 15.0794 17.0009 13.7163 17.0009H6.80146V25.0708H13.6107Z" fill="#263959" fill-opacity="0.2"/>
<path d="M33.8366 24.9653C34.6749 25.8036 35.9324 26.2228 37.6092 26.2228C38.7611 26.2228 39.8106 25.9092 40.649 25.3845C41.4873 24.7573 42.0121 24.1269 42.2201 23.4998H47.3558C46.5175 26.0148 45.2599 27.7971 43.5832 28.9491C41.9065 29.9954 39.9162 30.6258 37.5068 30.6258C35.83 30.6258 34.3645 30.3122 33.0014 29.7874C31.6383 29.2626 30.5919 28.5299 29.648 27.4835C28.704 26.5396 27.9713 25.3876 27.5521 24.0245C27.0273 22.6614 26.8193 21.1959 26.8193 19.5192C26.8193 17.9481 27.0273 16.4793 27.5521 15.1194C28.0769 13.7563 28.8096 12.6043 29.7536 11.558C30.6975 10.6141 31.8495 9.7757 33.107 9.25413C34.4701 8.72935 35.83 8.41577 37.5068 8.41577C39.2891 8.41577 40.8602 8.72935 42.2233 9.46211C43.5864 10.1949 44.6328 11.0332 45.4711 12.2908C46.3095 13.4427 46.9366 14.8058 47.3558 16.2713C47.5638 17.7369 47.6694 19.2056 47.5638 20.8823H32.3678C32.3678 22.5558 32.9982 24.1269 33.8366 24.9653ZM40.4378 13.9643C39.705 13.2315 38.5531 12.8123 37.19 12.8123C36.246 12.8123 35.5133 13.0203 34.8861 13.3371C34.2589 13.6507 33.8398 14.0699 33.4206 14.489C33.0014 14.9082 32.7934 15.433 32.6878 15.9546C32.5822 16.4793 32.4798 16.8985 32.4798 17.3177H41.9097C41.6953 15.7466 41.1706 14.697 40.4378 13.9643Z" fill="#263959" fill-opacity="0.2"/>
<path d="M55.7365 0.969727V11.8683H55.8421C56.5749 10.6108 57.5188 9.77245 58.6708 9.24768C59.8227 8.72291 60.8722 8.40932 62.0242 8.40932C63.5953 8.40932 64.8528 8.61731 65.7968 9.03649C66.7407 9.45567 67.5791 10.0828 68.1007 10.8188C68.6254 11.5516 69.0446 12.4955 69.2526 13.5418C69.4606 14.5882 69.5662 15.7433 69.5662 17.1033V29.9921H63.8033V18.156C63.8033 16.3737 63.4897 15.1162 62.9649 14.2778C62.4402 13.4394 61.4994 13.0203 60.1363 13.0203C58.5652 13.0203 57.4132 13.545 56.7829 14.3834C56.0501 15.3273 55.7365 16.8985 55.7365 18.9943V29.9986H49.9736V0.969727H55.7365Z" fill="#263959" fill-opacity="0.2"/>
<path d="M73.7609 12.0763C74.3881 11.1324 75.1241 10.5052 76.0648 9.87482C77.0088 9.35005 78.0551 8.93087 79.207 8.72288C80.359 8.5149 81.5109 8.4093 82.6661 8.4093C83.7124 8.4093 84.7619 8.5149 85.9139 8.61729C86.9602 8.72288 88.0098 9.03647 88.8481 9.45565C89.7921 9.87482 90.4192 10.502 91.0496 11.2379C91.5744 11.9707 91.888 13.0203 91.888 14.2778V25.282C91.888 26.2259 91.9935 27.1667 92.0959 28.005C92.2015 28.8434 92.5151 29.5762 92.8287 29.9953H86.9634C86.7554 29.7873 86.6498 29.3682 86.5442 29.0514C86.4386 28.7378 86.4386 28.3186 86.4386 28.005C85.4947 28.949 84.4484 29.5762 83.1908 29.9953C81.9333 30.4145 80.6758 30.5201 79.4182 30.5201C78.3719 30.5201 77.5335 30.4145 76.5896 30.1009C75.7512 29.8929 75.0185 29.4738 74.2857 28.949C73.6585 28.4242 73.1338 27.7971 72.7146 26.9587C72.401 26.1203 72.1898 25.282 72.1898 24.1301C72.1898 22.9781 72.3978 21.9286 72.817 21.1958C73.2362 20.463 73.7609 19.8327 74.3881 19.3111C75.0153 18.8919 75.8536 18.4728 76.692 18.2648C77.5303 18.0568 78.3687 17.8456 79.3126 17.74C80.151 17.6344 80.9893 17.532 81.8277 17.4264C82.6661 17.3208 83.3988 17.2184 84.0292 17.1128C84.6563 16.9048 85.1811 16.6937 85.6003 16.3801C86.0195 16.0665 86.1251 15.6473 86.1251 15.0169C86.1251 14.3898 86.0195 13.865 85.8115 13.5514C85.6035 13.2378 85.2867 12.9243 84.9731 12.7131C84.6595 12.5051 84.2404 12.3995 83.8212 12.2939C83.402 12.1883 82.8772 12.1883 82.3557 12.1883C81.2037 12.1883 80.3654 12.3963 79.735 12.9211C79.1078 13.4458 78.6887 14.2842 78.5831 15.3305H72.8202C72.817 14.0698 73.2362 12.9147 73.7609 12.0763ZM85.1843 20.2519C84.8707 20.3575 84.4516 20.4599 84.0324 20.5654C83.6132 20.671 83.194 20.671 82.6692 20.7734C82.2501 20.879 81.7253 20.879 81.3061 20.9814C80.887 21.087 80.4678 21.1894 80.0486 21.295C79.6294 21.4006 79.2102 21.6086 79.0022 21.8198C78.6887 22.0278 78.4775 22.3445 78.2695 22.6581C77.9559 23.0773 77.9559 23.4965 77.9559 24.0213C77.9559 24.546 78.0615 24.9652 78.2695 25.2788C78.4775 25.5924 78.6887 25.906 79.0022 26.1171C79.3158 26.3251 79.735 26.4307 80.1542 26.5363C80.5734 26.6419 80.9925 26.6419 81.5173 26.6419C82.6693 26.6419 83.5076 26.4339 84.138 26.1171C84.7651 25.698 85.1843 25.2788 85.5011 24.754C85.8147 24.2292 86.0259 23.7077 86.0259 23.1829C86.1315 22.6581 86.1315 22.239 86.1315 21.9254V19.7239C85.8115 19.9351 85.4979 20.1463 85.1843 20.2519Z" fill="#263959" fill-opacity="0.2"/>
<path d="M100.588 8.93407V11.8683H100.694C101.427 10.6108 102.371 9.77243 103.523 9.24766C104.675 8.72289 105.932 8.4093 107.084 8.4093C108.655 8.4093 109.913 8.61729 110.857 9.03647C111.903 9.45564 112.639 10.0828 113.161 10.8188C113.685 11.5515 114.105 12.4955 114.418 13.5418C114.626 14.5882 114.732 15.7433 114.732 17.1032V29.9921H108.969V18.156C108.969 16.3737 108.655 15.1161 108.13 14.2778C107.606 13.4394 106.665 12.9147 105.196 12.9147C103.625 12.9147 102.473 13.5418 101.737 14.4858C101.004 15.4297 100.691 17.0008 100.691 19.0967V30.1009H94.928V8.93407H100.588Z" fill="#263959" fill-opacity="0.2"/>
<path d="M127.624 12.7067C126.68 12.7067 125.947 12.9147 125.32 13.3338C124.693 13.753 124.168 14.2778 123.749 15.0105C123.33 15.6377 123.122 16.3737 122.91 17.212C122.699 18.0504 122.702 18.7831 122.702 19.6215C122.702 20.3543 122.808 21.1926 122.91 21.9254C123.118 22.7637 123.33 23.3909 123.749 24.0213C124.168 24.6484 124.587 25.1732 125.214 25.5924C125.841 26.0115 126.577 26.2195 127.518 26.2195C128.881 26.2195 129.928 25.8004 130.766 25.0676C131.499 24.3348 132.024 23.2853 132.129 21.9254H137.684C137.265 24.754 136.218 26.8499 134.436 28.3186C132.654 29.7841 130.35 30.5201 127.521 30.5201C125.95 30.5201 124.482 30.2065 123.224 29.6818C121.861 29.157 120.815 28.4242 119.871 27.4803C118.927 26.5363 118.194 25.3844 117.669 24.1269C117.144 22.7637 116.936 21.4038 116.936 19.8295C116.936 18.1528 117.144 16.6873 117.669 15.3241C118.194 13.961 118.821 12.7035 119.765 11.6571C120.709 10.6108 121.861 9.87482 123.118 9.24766C124.482 8.72289 125.947 8.4093 127.624 8.4093C128.881 8.4093 130.033 8.61729 131.185 8.93407C132.337 9.24766 133.387 9.77243 134.225 10.3996C135.169 11.0268 135.902 11.8651 136.426 12.9147C136.951 13.8586 137.265 15.1161 137.37 16.4761H131.713C131.499 13.9642 130.139 12.7067 127.624 12.7067Z" fill="#263959" fill-opacity="0.2"/>
<path d="M42.953 2.96008H31.2161V5.78873H42.953V2.96008Z" fill="#263959" fill-opacity="0.2"/>
<path d="M146.381 24.9653C147.219 25.8036 148.582 26.2228 150.154 26.2228C151.306 26.2228 152.355 25.9092 153.193 25.3845C154.032 24.7573 154.557 24.1269 154.765 23.4998H159.795C158.956 26.0148 157.699 27.7971 156.022 28.9491C154.345 29.9954 152.355 30.6258 149.946 30.6258C148.269 30.6258 146.803 30.3122 145.44 29.7874C144.077 29.2626 143.031 28.5299 142.087 27.4835C141.143 26.5396 140.41 25.3876 139.991 24.0245C139.466 22.6614 139.258 21.1959 139.258 19.5192C139.258 17.9481 139.466 16.4793 139.991 15.1194C140.516 13.7595 141.248 12.6043 142.192 11.558C143.136 10.6141 144.288 9.7757 145.546 9.25413C146.909 8.72935 148.374 8.41577 149.946 8.41577C151.728 8.41577 153.299 8.72935 154.557 9.46211C155.92 10.1949 156.966 11.0332 157.804 12.2908C158.643 13.4427 159.27 14.8058 159.689 16.2713C160.108 17.7369 160.214 19.3112 160.108 20.9879H144.912C144.912 22.5558 145.543 24.1269 146.381 24.9653ZM153.088 13.9643C152.355 13.2315 151.203 12.8123 149.84 12.8123C148.896 12.8123 148.163 13.0203 147.536 13.3371C146.909 13.6507 146.384 14.0699 146.071 14.489C145.757 14.9082 145.443 15.433 145.338 15.9546C145.232 16.4793 145.13 16.8985 145.13 17.3177H154.56C154.24 15.7466 153.715 14.697 153.088 13.9643Z" fill="#263959" fill-opacity="0.2"/>
</svg>
