<svg width="198" height="204" viewBox="0 0 198 204" fill="none" xmlns="http://www.w3.org/2000/svg">
<g filter="url(#filter0_d_1_3646)">
<rect width="105.435" height="95.3933" rx="12.5518" transform="matrix(0.939106 0.343629 -0.218792 0.975771 84.2971 5.04395)" fill="#F4F8FD"/>
<path d="M97.0151 50.8754L97.6163 55.5072C103.911 55.772 105.716 52.2945 107.188 47.2957L108.271 47.6918L106.891 49.9254L103.266 66.0936L107.596 67.678L112.041 47.8543L103.625 44.7747C102.609 49.3018 100.855 50.7287 97.0151 50.8754ZM124.013 51.9309C118.222 49.8118 113.885 52.6976 112.53 58.7431C111.168 64.8167 113.651 70.1979 119.442 72.317C125.207 74.4262 129.543 71.5404 130.905 65.4668C132.261 59.4213 129.778 54.0401 124.013 51.9309ZM123.131 55.8675C124.186 56.2537 125.049 56.8435 125.667 57.617L116.577 63.0233C116.558 62.1948 116.639 61.3116 116.86 60.3275C117.774 56.2503 120.073 54.7486 123.131 55.8675ZM120.325 68.3804C119.27 67.9942 118.406 67.4044 117.768 66.5929L126.857 61.1866C126.877 62.0151 126.789 62.9264 126.575 63.8824C125.655 67.9877 123.383 69.4993 120.325 68.3804ZM154.471 63.3798L148.138 61.0627L138.579 65.1712L140.155 58.1415L135.825 56.5571L131.38 76.3808L135.71 77.9652L137.28 70.9636L143.693 80.8864L150.026 83.2035L140.744 69.0972L154.471 63.3798Z" fill="#263959"/>
<path d="M106.027 85.1927C108.068 85.9395 109.588 85.0378 110.264 83.7639L109.118 82.8882C108.638 83.7265 107.671 84.3364 106.329 83.8454C104.965 83.3461 103.911 81.8447 104.347 79.8999C104.799 77.8847 106.341 77.3716 107.661 77.8543C109.002 78.3453 109.565 79.426 109.576 80.5203L110.95 80.5413C110.915 78.9564 109.987 77.2731 107.957 76.5304C105.883 75.7712 103.567 76.686 102.96 79.3924C102.353 82.0988 103.874 84.4047 106.027 85.1927ZM112.145 87.2411L114.047 78.7586L112.739 78.28L110.837 86.7625L112.145 87.2411ZM115.129 88.3329L116.408 82.6271L115.111 82.1527L113.832 87.8584L115.129 88.3329ZM115.358 80.0749C115.247 80.567 115.544 81.0939 116.006 81.2631C116.48 81.4364 116.95 81.19 117.06 80.698C117.171 80.2059 116.877 79.6672 116.403 79.494C115.941 79.3248 115.468 79.5829 115.358 80.0749ZM118.51 85.8049C118.692 85.2121 119.312 84.7293 120.135 85.0305C121.037 85.3606 121.332 86.1149 121.205 86.791L118.51 85.8049ZM121.018 88.3325C120.711 88.8289 120.208 89.1139 119.419 88.825C118.607 88.528 118.092 87.6677 118.253 86.7883L122.267 88.2572C122.283 88.2379 122.348 88.0587 122.398 87.8361C122.802 86.0318 122.07 84.5088 120.379 83.8899C118.992 83.3824 117.439 84.1071 117.034 85.9114C116.601 87.8445 117.668 89.452 119.156 89.9967C120.475 90.4794 121.525 89.9887 122.041 89.1001L121.018 88.3325ZM125.04 88.3971C125.208 87.6473 125.737 87.1942 126.481 87.4665C127.304 87.7677 127.482 88.4415 127.325 89.1444L126.568 92.5187L127.876 92.9973L128.685 89.3887C128.966 88.1351 128.55 86.8923 127.208 86.4013C126.599 86.1785 125.884 86.2087 125.377 86.7328L125.547 85.9712L124.273 85.505L122.994 91.2108L124.302 91.6894L125.04 88.3971ZM132.797 86.735L131.613 86.3018L131.421 87.1571C131.308 87.6609 130.962 87.9526 130.376 87.7381L130.094 87.6349L129.823 88.8417L130.838 89.213L130.195 92.0834C129.955 93.1496 130.445 94.0133 131.46 94.3847C131.933 94.558 132.203 94.555 132.289 94.5487L132.542 93.424C132.483 93.4151 132.26 93.3718 132.08 93.3058C131.595 93.1284 131.428 92.8391 131.541 92.3353L132.135 89.6875L133.274 90.1042L133.544 88.8974L132.405 88.4807L132.797 86.735Z" fill="#263959"/>
</g>
<defs>
<filter id="filter0_d_1_3646" x="0.970739" y="0.505966" width="196.134" height="203.271" filterUnits="userSpaceOnUse" color-interpolation-filters="sRGB">
<feFlood flood-opacity="0" result="BackgroundImageFix"/>
<feColorMatrix in="SourceAlpha" type="matrix" values="0 0 0 0 0 0 0 0 0 0 0 0 0 0 0 0 0 0 127 0" result="hardAlpha"/>
<feOffset dx="-24.3311" dy="32.4415"/>
<feGaussianBlur stdDeviation="20.2759"/>
<feColorMatrix type="matrix" values="0 0 0 0 0 0 0 0 0 0 0 0 0 0 0 0 0 0 0.15 0"/>
<feBlend mode="normal" in2="BackgroundImageFix" result="effect1_dropShadow_1_3646"/>
<feBlend mode="normal" in="SourceGraphic" in2="effect1_dropShadow_1_3646" result="shape"/>
</filter>
</defs>
</svg>
