<svg width="122" height="31" viewBox="0 0 122 31" fill="none" xmlns="http://www.w3.org/2000/svg">
<path d="M37.0929 12.9003C38.4824 12.9003 39.6087 11.774 39.6087 10.3844C39.6087 8.99489 38.4824 7.86856 37.0929 7.86856C35.7033 7.86856 34.577 8.99489 34.577 10.3844C34.577 11.774 35.7033 12.9003 37.0929 12.9003ZM120.123 21.4983C119.741 21.228 119.445 21.1853 119.201 21.707C114.975 30.8598 107.855 26.2929 108.561 26.6936C110.14 25.9704 114.295 22.6388 113.666 18.0387C113.285 15.2264 110.873 13.9792 108.31 14.4273C103.84 15.2075 102.195 20.0281 103.032 24.2987C103.179 25.0314 103.439 25.6361 103.7 26.2289C98.6472 30.3382 96.6411 22.5511 96.4135 21.6216C96.404 21.5718 100.314 18.3138 101.403 10.5457C102.543 2.40529 99.9466 0.925656 97.2908 0.970709C92.3824 1.05844 91.0545 11.3234 92.8377 19.8788C92.6883 19.9167 91.9935 20.3032 90.8767 20.3459C90.0729 17.8158 86.6393 15.5987 85.7383 16.4547C83.488 18.5912 86.2837 22.7693 88.2518 23.0989C87.0709 30.3761 79.6798 28.574 81.0575 19.4567C83.4643 14.9893 85.2949 8.34281 84.9676 4.33309C84.8514 2.91273 83.801 1.01102 81.4274 1.1035C76.8605 1.28371 76.3649 11.5534 76.8984 18.8402C76.8723 18.66 76.6186 19.7246 74.7453 20.2558C74.3019 17.7992 70.3467 15.3308 69.4149 16.5187C67.672 18.7382 70.6929 22.6958 72.1252 22.9708C70.9443 30.2481 63.5556 28.4459 64.9309 19.3286C67.3377 14.8613 69.1683 8.21476 68.841 4.20504C68.7248 2.78469 67.6768 0.882974 65.3008 0.975451C60.7339 1.15566 60.2383 11.4254 60.7718 18.7121C60.7457 18.5295 60.4849 19.6298 58.5357 20.1514C58.4693 16.9622 54.4999 15.5015 53.5443 16.5187C51.8442 18.3327 53.9332 22.0532 55.8658 22.9708C54.6849 30.2481 47.2962 28.4459 48.6715 19.3286C51.0783 14.8613 52.9089 8.21476 52.5816 4.20504C52.4654 2.78469 51.4174 0.882974 49.0414 0.975451C44.4745 1.15566 44.1069 11.9399 44.6428 19.229C43.1395 25.674 38.0935 33.7219 38.748 17.6C38.812 16.4689 38.8831 16.0398 38.3188 15.6153C37.8967 15.2857 36.9364 15.4446 36.41 15.4564C35.7721 15.4825 35.6109 15.8548 35.471 16.4192C35.1414 17.8775 35.0845 19.2907 35.037 21.2185C35.0062 22.1195 34.9327 22.5416 34.5865 23.7723C34.2403 25.0029 32.2603 27.2509 31.1767 26.8738C29.6733 26.3569 30.1666 22.1124 30.4487 19.1958C30.6835 16.891 29.9318 15.8572 28.0064 15.4802C26.8777 15.2454 26.1948 15.281 25.0187 14.9111C23.9089 14.5601 23.6576 12.4616 21.2887 13.1611C19.9941 13.5452 20.8264 16.2887 20.5157 18.3232C18.9863 28.3298 15.7994 28.6048 14.3221 23.7438C20.9757 7.44649 16.2475 1.0205 13.478 1.0205C10.5946 1.0205 7.29859 3.00758 8.69523 15.7149C8.01707 15.5181 7.8084 15.4114 7.06621 15.4114C2.86205 15.409 0 18.8046 0 22.9945C0 27.1845 2.86205 30.58 7.06384 30.58C9.54413 30.58 11.2846 29.4513 12.6054 27.7061C13.4661 28.9392 14.5142 30.599 16.4301 30.5231C22.1424 30.3002 23.8022 18.5841 23.999 17.932C24.6108 18.0268 25.187 18.2047 25.7514 18.2972C26.6904 18.4394 26.7591 18.8093 26.7378 19.7554C26.4888 27.7227 27.959 30.5136 31.2953 30.5136C33.1543 30.5136 34.8094 28.6878 35.9499 27.3813C36.8012 29.1407 38.1599 30.4591 39.981 30.5136C44.3962 30.6227 46.0845 23.5873 45.9328 24.5121C45.8118 25.2377 47.365 30.4733 51.9106 30.4923C57.5398 30.516 58.5855 24.3248 58.7112 23.2886C58.7278 23.0823 58.7326 23.1036 58.7112 23.2886C58.7088 23.3075 58.7088 23.3289 58.7065 23.3526C60.4944 23.0206 61.4168 22.0626 61.4168 22.0626C61.4168 22.0626 62.8513 30.5919 68.1676 30.4947C73.6878 30.3951 74.7288 24.799 74.8663 23.7083C74.8853 23.4498 74.8947 23.4806 74.8663 23.7083C74.8663 23.7201 74.8639 23.7296 74.8639 23.7415C76.9861 22.9684 77.5457 22.1931 77.5457 22.1931C77.5457 22.1931 78.6863 30.5516 84.2966 30.6251C89.2951 30.6915 91.1494 25.572 91.1589 23.4285C92.003 23.4379 93.5609 22.9281 93.5254 22.8997C93.5254 22.8997 95.3559 30.2078 100.471 30.5824C102.873 30.7579 104.672 29.2308 105.699 28.5337C108.113 30.4876 116.147 32.9844 121.221 24.3817C121.935 23.1487 120.394 21.6904 120.123 21.4983ZM6.86229 27.7441C4.41045 27.7441 2.83834 25.4772 2.83834 23.0325C2.83834 20.5877 4.28004 18.3209 6.73187 18.3209C7.83448 18.3209 8.44863 18.4418 9.30701 19.1887C9.46351 19.8029 9.90455 21.2185 10.1203 21.8611C10.4073 22.7218 10.7511 23.4545 11.0949 24.2513C10.6017 26.3 8.98689 27.7441 6.86229 27.7441ZM12.8354 19.2622C12.7334 19.101 12.7548 19.2006 12.6409 19.0465C12.1928 17.8253 11.3249 15.096 11.2253 11.9968C11.1115 8.49219 11.6972 4.38288 13.4187 4.38288C14.5853 4.38288 15.8255 12.7106 12.8354 19.2622ZM47.3507 15.6106C47.0733 13.531 47.0591 4.25721 49.2856 4.51093C50.5163 5.00888 48.5079 13.761 47.3507 15.6106ZM63.6078 15.6106C63.3303 13.531 63.3161 4.25721 65.5427 4.51093C66.771 5.00888 64.7625 13.761 63.6078 15.6106ZM79.7344 15.741C79.4569 13.6614 79.4427 4.38763 81.6693 4.64135C82.8999 5.1393 80.8915 13.8891 79.7344 15.741ZM97.5398 3.97029C99.5743 3.75925 99.4913 12.6489 95.4057 18.2592C94.8793 16.2295 94.0707 4.66506 97.5398 3.97029ZM106.095 23.0965C105.441 19.7934 107.131 17.6261 108.872 17.3866C109.481 17.2894 110.363 17.683 110.539 18.4205C110.828 19.81 110.496 21.8706 106.6 24.486C106.605 24.5074 106.242 23.8316 106.095 23.0965Z" fill="#263959" fill-opacity="0.2"/>
</svg>
