<svg width="168" height="162" viewBox="0 0 168 162" fill="none" xmlns="http://www.w3.org/2000/svg">
<g filter="url(#filter0_d_1_3651)">
<rect width="104.137" height="94.2193" rx="12.3973" transform="matrix(0.946811 -0.32179 0.476257 0.879306 20 34.0449)" fill="#F4F8FD"/>
<path d="M59.6422 60.9729L63.1168 64.089C68.0564 60.4247 67.1561 56.7004 65.0124 52.0356L66.0903 51.6693L66.5019 54.1965L74.2962 68.587L78.6079 67.1216L69.0514 49.4775L60.6705 52.3259C62.8529 56.3553 62.4542 58.5059 59.6422 60.9729ZM77.794 59.723C80.3967 64.5282 85.3749 65.1181 90.3873 63.4145C95.3997 61.711 97.6297 58.523 95 53.6678C92.804 49.6134 88.9299 48.352 85.5883 49.4877C82.9204 50.3944 81.604 52.3235 82.071 55.4245L80.9242 55.2512L80.5127 52.724L79.1436 50.1963L89.4378 46.6976L87.5401 43.1938L72.9341 48.1579L77.0142 55.6911L83.2747 56.6453C83.6613 55.0026 84.6026 53.9714 86.1925 53.4311C88.2136 52.7441 89.7258 53.3563 90.7425 55.2333C91.9353 57.4357 91.5347 58.8758 88.4895 59.9107C85.121 61.0556 83.258 60.3849 82.1058 58.2576L77.794 59.723ZM110.592 35.3591L104.286 37.5023L99.7255 46.4609L96.3366 40.2042L92.0249 41.6696L101.581 59.3136L105.893 57.8482L102.518 51.6165L113.843 55.1464L120.149 53.0032L103.924 48.0862L110.592 35.3591Z" fill="#263959"/>
<path d="M75.8841 85.1065L74.2687 82.1241L77.5025 81.025L76.8756 79.8675L73.6418 80.9666L72.5178 78.8915L76.1222 77.6665L75.4839 76.4881L70.5322 78.171L74.5366 85.5644L75.8841 85.1065ZM80.7672 77.3966C80.7054 77.4052 80.5594 77.4302 80.4022 77.4836C79.6836 77.7278 79.2523 78.2572 79.2934 78.8976L78.8529 78.0843L77.584 78.5155L80.3347 83.5939L81.6372 83.1512L80.3268 80.7319C79.8128 79.783 79.9795 79.0843 80.9901 78.7408C81.1248 78.695 81.2764 78.6558 81.4337 78.6271L80.7672 77.3966ZM83.7993 78.7492C83.5505 78.1916 83.7058 77.4474 84.5255 77.1688C85.4238 76.8635 86.1385 77.2503 86.4829 77.8371L83.7993 78.7492ZM87.3462 79.1118C87.4376 79.6734 87.2424 80.1966 86.4564 80.4638C85.6479 80.7385 84.6973 80.4072 84.2457 79.647L88.243 78.2884C88.243 78.2637 88.1751 78.0893 88.0677 77.8911C87.1979 76.2852 85.6507 75.5887 83.9664 76.1611C82.5853 76.6305 81.8814 78.1292 82.7512 79.7351C83.6831 81.4557 85.539 82.0103 87.0212 81.5066C88.3349 81.0601 88.8098 80.0467 88.6217 79.0611L87.3462 79.1118ZM89.9508 76.6584C89.702 76.1009 89.8574 75.3567 90.677 75.0781C91.5753 74.7728 92.29 75.1596 92.6344 75.7464L89.9508 76.6584ZM93.4977 77.0211C93.5892 77.5827 93.3939 78.1059 92.6079 78.3731C91.7995 78.6478 90.8489 78.3165 90.3972 77.5563L94.3946 76.1977C94.3945 76.173 94.3266 75.9985 94.2193 75.8004C93.3495 74.1945 91.8022 73.498 90.1179 74.0704C88.7368 74.5398 88.0329 76.0385 88.9027 77.6444C89.8346 79.365 91.6906 79.9196 93.1727 79.4158C94.4865 78.9694 94.9613 77.956 94.7732 76.9704L93.4977 77.0211ZM98.1728 77.5313L94.0837 69.9814L92.7811 70.4241L96.8703 77.9739L98.1728 77.5313ZM98.7486 75.7057C99.1835 76.5087 100.286 76.9982 101.432 76.6089C102.319 76.3075 102.632 75.7072 102.681 75.2336C102.901 75.6403 103.059 75.8335 103.087 75.861L104.3 75.4489C104.26 75.4005 104.041 75.1172 103.792 74.6584L102.425 72.1348C101.877 71.1233 100.757 70.4545 99.0729 71.0269C97.7255 71.4848 97.2957 72.557 97.6691 73.4673L98.9949 73.313C98.7743 72.783 98.9358 72.2465 99.6207 72.0137C100.339 71.7695 100.84 72.0068 101.072 72.4343C101.168 72.6116 101.157 72.7881 100.865 72.9367L99.5689 73.6118C98.7047 74.0537 98.2572 74.7985 98.7486 75.7057ZM101.165 75.576C100.648 75.7516 100.198 75.5342 100.012 75.19C99.7856 74.7729 99.9983 74.4537 100.369 74.2537L101.687 73.571L101.812 73.8004C102.348 74.791 101.894 75.328 101.165 75.576ZM105.522 71.5637C105.161 70.8963 105.266 70.2309 106.007 69.9791C106.827 69.7005 107.401 70.098 107.74 70.7237L109.367 73.7269L110.669 73.2842L108.929 70.0724C108.325 68.9566 107.199 68.2774 105.863 68.7315C105.257 68.9376 104.735 69.3987 104.692 70.1048L104.325 69.427L103.056 69.8582L105.807 74.9366L107.11 74.494L105.522 71.5637ZM112.404 67.8172C113.235 67.5348 113.877 67.9094 114.243 68.3159L115.196 67.5227C114.531 66.7857 113.259 66.2053 111.789 66.7053C110.217 67.2395 109.603 68.7817 110.45 70.3459C111.286 71.8892 113.137 72.6308 114.742 72.0851C116.18 71.5966 116.53 70.4525 116.359 69.5722L115.005 69.5756C115.091 70.0034 114.997 70.6897 114.144 70.9797C113.324 71.2583 112.306 70.9252 111.752 69.9032C111.199 68.8813 111.607 68.0882 112.404 67.8172ZM117.507 67.2931C117.258 66.7356 117.413 65.9913 118.233 65.7128C119.131 65.4075 119.846 65.7943 120.19 66.381L117.507 67.2931ZM121.054 67.6558C121.145 68.2174 120.95 68.7406 120.164 69.0077C119.355 69.2825 118.405 68.9511 117.953 68.1909L121.95 66.8324C121.95 66.8077 121.882 66.6332 121.775 66.4351C120.905 64.8292 119.358 64.1326 117.674 64.7051C116.293 65.1745 115.589 66.6732 116.459 68.2791C117.39 69.9997 119.246 70.5542 120.729 70.0505C122.042 69.604 122.517 68.5906 122.329 67.605L121.054 67.6558ZM124.859 62.4113C124.797 62.42 124.651 62.4449 124.494 62.4983C123.775 62.7426 123.344 63.2719 123.385 63.9124L122.944 63.099L121.676 63.5302L124.426 68.6086L125.729 68.1659L124.418 65.7466C123.904 64.7977 124.071 64.099 125.082 63.7555C125.216 63.7097 125.368 63.6706 125.525 63.6418L124.859 62.4113Z" fill="#263959"/>
</g>
<defs>
<filter id="filter0_d_1_3651" x="0.380983" y="3.81372" width="166.629" height="158.038" filterUnits="userSpaceOnUse" color-interpolation-filters="sRGB">
<feFlood flood-opacity="0" result="BackgroundImageFix"/>
<feColorMatrix in="SourceAlpha" type="matrix" values="0 0 0 0 0 0 0 0 0 0 0 0 0 0 0 0 0 0 127 0" result="hardAlpha"/>
<feOffset dx="-8.03971" dy="32.1589"/>
<feGaussianBlur stdDeviation="8.03971"/>
<feColorMatrix type="matrix" values="0 0 0 0 0 0 0 0 0 0 0 0 0 0 0 0 0 0 0.13 0"/>
<feBlend mode="normal" in2="BackgroundImageFix" result="effect1_dropShadow_1_3651"/>
<feBlend mode="normal" in="SourceGraphic" in2="effect1_dropShadow_1_3651" result="shape"/>
</filter>
</defs>
</svg>
