<svg width="110" height="31" viewBox="0 0 110 31" fill="none" xmlns="http://www.w3.org/2000/svg">
<path d="M21.3959 13.0822H12.1797C11.9422 13.0822 11.7481 13.2763 11.7481 13.5138V18.0169C11.7481 18.2544 11.9399 18.4485 12.1797 18.4485H15.7739V24.0454C15.7739 24.0454 14.9656 24.3217 12.7346 24.3217C10.1017 24.3217 6.42294 23.3603 6.42294 15.2721C6.42294 7.18164 10.2524 6.11752 13.8489 6.11752C16.9614 6.11752 18.3018 6.66556 19.1558 6.93045C19.423 7.01266 19.6719 6.74549 19.6719 6.508L20.6995 2.15562C20.6995 2.04373 20.6607 1.91129 20.5351 1.81995C20.1902 1.57104 18.0757 0.388184 12.7369 0.388184C6.58279 0.388184 0.273438 3.00509 0.273438 15.5873C0.273438 28.1694 7.49848 30.0442 13.5863 30.0442C18.6283 30.0442 21.6859 27.8908 21.6859 27.8908C21.8115 27.8223 21.8252 27.6442 21.8252 27.5643V13.5115C21.8252 13.2741 21.6334 13.0822 21.3959 13.0822Z" fill="#263959" fill-opacity="0.2"/>
<path d="M68.8863 1.89529C68.8863 1.65552 68.6968 1.46143 68.4593 1.46143H63.2711C63.0337 1.46143 62.8418 1.65552 62.8418 1.89529L62.8441 11.9222H54.7559V1.89529C54.7559 1.65552 54.5641 1.46143 54.3266 1.46143H49.1385C48.9033 1.46143 48.7092 1.65552 48.7092 1.89529V29.0463C48.7092 29.286 48.901 29.4801 49.1385 29.4801H54.3266C54.5641 29.4801 54.7559 29.286 54.7559 29.0463V17.4346H62.8418L62.8281 29.0486C62.8281 29.2883 63.02 29.4824 63.2574 29.4824H68.4593C68.6968 29.4824 68.8863 29.2883 68.8886 29.0486V1.89529H68.8863Z" fill="#263959" fill-opacity="0.2"/>
<path d="M31.1878 5.45764C31.1878 3.58973 29.6898 2.08032 27.8424 2.08032C25.9973 2.08032 24.4971 3.58973 24.4971 5.45764C24.4971 7.32327 25.9951 8.83724 27.8424 8.83724C29.6898 8.83952 31.1878 7.32555 31.1878 5.45764Z" fill="#263959" fill-opacity="0.2"/>
<path d="M30.8155 23.3193C30.8155 22.6228 30.8155 10.7851 30.8155 10.7851C30.8155 10.5476 30.6237 10.3535 30.3862 10.3535H25.214C24.9765 10.3535 24.7642 10.5979 24.7642 10.8353C24.7642 10.8353 24.7642 25.9179 24.7642 28.7929C24.7642 29.3204 25.093 29.4779 25.5177 29.4779C25.5177 29.4779 27.7259 29.4779 30.1784 29.4779C30.6899 29.4779 30.8155 29.2268 30.8155 28.7838C30.8155 27.8224 30.8155 24.0523 30.8155 23.3193Z" fill="#263959" fill-opacity="0.2"/>
<path d="M88.6066 10.3945H83.4572C83.222 10.3945 83.0279 10.5886 83.0279 10.8284V24.1413C83.0279 24.1413 81.7195 25.0981 79.863 25.0981C78.0065 25.0981 77.5133 24.2555 77.5133 22.4378C77.5133 20.6178 77.5133 10.8284 77.5133 10.8284C77.5133 10.5886 77.3214 10.3945 77.0839 10.3945H71.8616C71.6264 10.3945 71.4323 10.5886 71.4323 10.8284C71.4323 10.8284 71.4323 17.9187 71.4323 23.3169C71.4323 28.7174 74.4419 30.0373 78.5819 30.0373C81.9775 30.0373 84.7177 28.1603 84.7177 28.1603C84.7177 28.1603 84.8479 29.149 84.9073 29.2655C84.9666 29.382 85.1196 29.5007 85.2863 29.5007L88.6111 29.487C88.8463 29.487 89.0404 29.2929 89.0404 29.0531L89.0381 10.8261C89.0359 10.5886 88.844 10.3945 88.6066 10.3945Z" fill="#263959" fill-opacity="0.2"/>
<path d="M102.68 9.78483C99.7546 9.78483 97.7657 11.0887 97.7657 11.0887V1.89529C97.7657 1.65552 97.5739 1.46143 97.3364 1.46143H92.1322C91.8948 1.46143 91.7029 1.65552 91.7029 1.89529V29.0463C91.7029 29.286 91.8948 29.4801 92.1322 29.4801C92.1322 29.4801 95.7402 29.4801 95.7425 29.4801C95.9046 29.4801 96.0279 29.3957 96.1193 29.2495C96.2083 29.1034 96.3385 27.9981 96.3385 27.9981C96.3385 27.9981 98.4667 30.0145 102.495 30.0145C107.224 30.0145 109.935 27.6168 109.935 19.2477C109.937 10.8786 105.607 9.78483 102.68 9.78483ZM100.65 25.0821C98.864 25.0273 97.6515 24.2166 97.6515 24.2166V15.6192C97.6515 15.6192 98.8458 14.8862 100.312 14.756C102.166 14.5893 103.952 15.1511 103.952 19.5743C103.954 24.2372 103.148 25.1575 100.65 25.0821Z" fill="#263959" fill-opacity="0.2"/>
<path d="M45.729 10.3511H41.8379C41.8379 10.3511 41.8311 5.21096 41.8311 5.20867C41.8311 5.01457 41.7306 4.91638 41.5068 4.91638H36.2022C35.9967 4.91638 35.8848 5.00772 35.8848 5.20639V10.5201C35.8848 10.5201 33.2268 11.1618 33.0464 11.2143C32.8683 11.2668 32.7358 11.4312 32.7358 11.6276V14.9661C32.7358 15.2059 32.9277 15.4 33.1651 15.4H35.8848C35.8848 15.4 35.8848 18.8915 35.8848 23.4334C35.8848 29.4002 40.0705 29.9871 42.8952 29.9871C44.1854 29.9871 45.729 29.5738 45.9848 29.4779C46.1378 29.4208 46.2291 29.2609 46.2291 29.0874L46.2337 25.4132C46.2337 25.1734 46.0305 24.9793 45.8044 24.9793C45.5783 24.9793 44.9983 25.0707 44.4 25.0707C42.4887 25.0707 41.8402 24.1824 41.8402 23.0315C41.8402 21.8806 41.8402 15.3977 41.8402 15.3977H45.7336C45.9711 15.3977 46.1629 15.2036 46.1629 14.9638V10.785C46.1583 10.5452 45.9665 10.3511 45.729 10.3511Z" fill="#263959" fill-opacity="0.2"/>
</svg>
