<svg width="173" height="39" viewBox="0 0 173 39" fill="none" xmlns="http://www.w3.org/2000/svg">
<path d="M67.849 20.8907C68.123 20.8907 68.356 21.1237 68.356 21.3978V22.4941C68.356 25.4679 67.4104 27.8797 65.5055 29.7297C63.6007 31.5799 61.1477 32.498 58.1328 32.498C54.9261 32.498 52.2538 31.4565 50.1433 29.3597C48.0192 27.2631 46.964 24.7141 46.964 21.6993C46.964 18.6707 48.0055 16.0944 50.1022 13.9977C52.1989 11.9009 54.7891 10.8457 57.8861 10.8457C59.8321 10.8457 61.5998 11.2842 63.217 12.175C64.6558 12.9698 65.807 13.9839 66.6704 15.2447C66.8348 15.4914 66.7526 15.8202 66.506 15.971L63.8611 17.4647C63.6418 17.5881 63.354 17.5332 63.2033 17.3277C62.7237 16.6425 62.0521 16.0807 61.2025 15.6284C60.2021 15.0939 59.0921 14.8198 57.8587 14.8198C55.8716 14.8198 54.2408 15.464 52.9664 16.7658C51.6919 18.0677 51.0478 19.7121 51.0478 21.6855C51.0478 23.6453 51.6919 25.276 52.9938 26.5504C54.2957 27.825 56.0087 28.469 58.1602 28.469C59.7498 28.469 61.0654 28.1127 62.107 27.4138C62.9292 26.852 63.5595 26.1257 63.957 25.2349C64.1077 24.8923 63.8748 24.5086 63.5047 24.5086H58.4342C58.1602 24.5086 57.9272 24.2756 57.9272 24.0016V21.3841C57.9272 21.11 58.1602 20.877 58.4342 20.877H67.849V20.8907Z" fill="#263959"/>
<path d="M74.9203 17.9848C74.9203 18.4371 75.4821 18.6701 75.7837 18.3411C76.044 18.0671 76.3456 17.8204 76.6881 17.6285C77.3596 17.2448 78.0859 17.0118 78.8807 16.9434C79.1823 16.9159 79.4426 17.1489 79.4426 17.4504V20.6571C79.4426 20.9448 79.2096 21.1641 78.9219 21.1641C77.9626 21.1367 77.0856 21.3971 76.3044 21.9178C75.3863 22.5345 74.9203 23.5487 74.9203 24.9875V31.5929C74.9203 31.867 74.6873 32.1 74.4133 32.1H71.5903C71.3161 32.1 71.0831 31.867 71.0831 31.5929V17.7108C71.0831 17.4367 71.3161 17.2037 71.5903 17.2037H74.4133C74.6873 17.2037 74.9203 17.4367 74.9203 17.7108V17.9848Z" fill="#263959"/>
<path d="M92.9275 17.2038H95.7507C96.0247 17.2038 96.2577 17.4368 96.2577 17.7109V31.5793C96.2577 31.8534 96.0247 32.0864 95.7507 32.0864H92.9275C92.6535 32.0864 92.4205 31.8534 92.4205 31.5793V31.5656C92.4205 31.1408 91.9272 30.9078 91.5983 31.1682C90.5431 32.0453 89.2001 32.4837 87.5693 32.4837C85.5822 32.4837 83.8829 31.73 82.4715 30.209C81.0599 28.6878 80.3473 26.8377 80.3473 24.6314C80.3473 22.4251 81.0599 20.575 82.4715 19.0538C83.8829 17.5328 85.5959 16.7791 87.5693 16.7791C89.2001 16.7791 90.5294 17.2175 91.5983 18.1084C91.9272 18.3824 92.4205 18.1494 92.4205 17.7109V17.6972C92.4205 17.4231 92.6398 17.2038 92.9275 17.2038ZM85.3356 27.66C86.1029 28.4411 87.0897 28.8385 88.2819 28.8385C89.4742 28.8385 90.4608 28.4411 91.242 27.66C92.0231 26.8788 92.4205 25.8647 92.4205 24.6451C92.4205 23.4117 92.0231 22.4114 91.242 21.6302C90.4608 20.8491 89.4742 20.4517 88.2819 20.4517C87.0897 20.4517 86.1167 20.8491 85.3356 21.6302C84.5682 22.4114 84.1708 23.4254 84.1708 24.6451C84.1845 25.8647 84.5682 26.8788 85.3356 27.66Z" fill="#263959"/>
<path d="M108.399 16.7925C110.4 16.7925 112.113 17.5462 113.524 19.0674C114.936 20.5885 115.649 22.4386 115.649 24.6449C115.649 26.8513 114.936 28.7013 113.524 30.2224C112.113 31.7436 110.4 32.4973 108.399 32.4973C106.782 32.4973 105.453 32.0587 104.411 31.1817C104.082 30.9076 103.589 31.1406 103.589 31.5654C103.589 31.8395 103.356 32.0725 103.082 32.0725H100.259C99.9848 32.0725 99.752 31.8395 99.752 31.5654V11.7631C99.752 11.4891 99.9848 11.2561 100.259 11.2561H103.082C103.356 11.2561 103.589 11.4891 103.589 11.7631V17.7107C103.589 18.1355 104.082 18.3684 104.411 18.0944C105.439 17.2174 106.768 16.7925 108.399 16.7925ZM104.74 27.6597C105.508 28.4409 106.494 28.8383 107.687 28.8383C108.879 28.8383 109.866 28.4409 110.647 27.6597C111.427 26.8786 111.825 25.8646 111.825 24.6449C111.825 23.4116 111.427 22.4111 110.647 21.63C109.866 20.8489 108.879 20.4514 107.687 20.4514C106.494 20.4514 105.521 20.8489 104.74 21.63C103.973 22.4111 103.575 23.4253 103.575 24.6449C103.575 25.8646 103.959 26.8786 104.74 27.6597Z" fill="#263959"/>
<path d="M125.653 32.4973C123.584 32.4973 121.857 32.0313 120.445 31.1131C119.157 30.2773 118.225 29.1535 117.635 27.7694C117.54 27.5364 117.622 27.2624 117.842 27.139L120.487 25.5905C120.733 25.4397 121.061 25.5357 121.198 25.8097C122.062 27.5913 123.584 28.4957 125.776 28.4957C126.927 28.4957 127.763 28.2901 128.312 27.8654C128.859 27.4405 129.12 26.9198 129.12 26.2894C129.12 25.5494 128.791 24.9875 128.133 24.5764C127.475 24.1652 126.31 23.7267 124.625 23.2471C123.693 22.973 122.898 22.6989 122.254 22.4111C121.61 22.1371 120.966 21.7671 120.321 21.3011C119.678 20.8352 119.185 20.2459 118.856 19.5333C118.513 18.8207 118.348 17.9848 118.348 17.0392C118.348 15.1618 119.02 13.6543 120.363 12.5306C121.706 11.4069 123.31 10.845 125.201 10.845C126.886 10.845 128.366 11.2561 129.655 12.0783C130.805 12.8183 131.724 13.8188 132.422 15.0795C132.559 15.3262 132.464 15.6276 132.23 15.7648L129.655 17.2448C129.408 17.3818 129.106 17.2995 128.969 17.0666C128.133 15.5865 126.872 14.8328 125.214 14.8328C124.365 14.8328 123.693 15.0246 123.2 15.4084C122.72 15.7921 122.473 16.2992 122.473 16.9158C122.473 17.5736 122.747 18.0944 123.296 18.5055C123.843 18.9166 124.885 19.3552 126.434 19.8348C127.064 20.0266 127.543 20.1911 127.873 20.3008C128.202 20.4104 128.64 20.5748 129.216 20.8078C129.777 21.0408 130.216 21.2462 130.532 21.4518C130.833 21.6437 131.189 21.9178 131.587 22.2604C131.983 22.603 132.285 22.9455 132.491 23.3019C132.696 23.6582 132.874 24.0967 133.025 24.5901C133.177 25.0971 133.245 25.6453 133.245 26.2345C133.245 28.1531 132.545 29.688 131.148 30.8117C129.709 31.9217 127.887 32.4973 125.653 32.4973Z" fill="#263959"/>
<path d="M143.262 20.8899H140.919C140.645 20.8899 140.411 21.1228 140.411 21.397V27.0841C140.411 27.6048 140.535 27.9749 140.795 28.2078C141.056 28.4408 141.425 28.5778 141.918 28.6053C142.289 28.6327 142.727 28.6327 143.249 28.619C143.536 28.6053 143.769 28.8383 143.769 29.126V31.6201C143.769 31.8805 143.564 32.0997 143.303 32.1272C140.905 32.3464 139.205 32.086 138.191 31.3323C137.109 30.5376 136.574 29.126 136.574 27.0841V21.397C136.574 21.1228 136.342 20.8899 136.067 20.8899H134.491C134.217 20.8899 133.984 20.6569 133.984 20.3828V17.7105C133.984 17.4365 134.217 17.2035 134.491 17.2035H136.067C136.342 17.2035 136.574 16.9705 136.574 16.6965V14.5724C136.574 14.3531 136.725 14.1475 136.931 14.0928L139.754 13.2431C140.082 13.1471 140.411 13.3938 140.411 13.7227V16.6965C140.411 16.9705 140.645 17.2035 140.919 17.2035H143.262C143.536 17.2035 143.769 17.4365 143.769 17.7105V20.3828C143.769 20.6707 143.536 20.8899 143.262 20.8899Z" fill="#263959"/>
<path d="M157.829 17.2038H160.653C160.926 17.2038 161.16 17.4368 161.16 17.7109V31.5793C161.16 31.8534 160.926 32.0864 160.653 32.0864H157.829C157.556 32.0864 157.322 31.8534 157.322 31.5793V31.5656C157.322 31.1408 156.829 30.9078 156.5 31.1682C155.445 32.0453 154.102 32.4837 152.471 32.4837C150.484 32.4837 148.785 31.73 147.374 30.209C145.962 28.6878 145.249 26.8377 145.249 24.6314C145.249 22.4251 145.962 20.575 147.374 19.0538C148.785 17.5328 150.498 16.7791 152.471 16.7791C154.102 16.7791 155.431 17.2175 156.5 18.1084C156.829 18.3824 157.322 18.1494 157.322 17.7109V17.6972C157.322 17.4231 157.556 17.2038 157.829 17.2038ZM150.251 27.66C151.018 28.4411 152.005 28.8385 153.198 28.8385C154.39 28.8385 155.377 28.4411 156.158 27.66C156.938 26.8788 157.336 25.8647 157.336 24.6451C157.336 23.4117 156.938 22.4114 156.158 21.6302C155.377 20.8491 154.39 20.4517 153.198 20.4517C152.005 20.4517 151.032 20.8491 150.251 21.6302C149.484 22.4114 149.086 23.4254 149.086 24.6451C149.086 25.8647 149.47 26.8788 150.251 27.66Z" fill="#263959"/>
<path d="M168.477 17.9848C168.477 18.4371 169.039 18.6701 169.341 18.3411C169.601 18.0671 169.903 17.8204 170.245 17.6285C170.917 17.2448 171.643 17.0118 172.438 16.9434C172.739 16.9159 173 17.1489 173 17.4504V20.6571C173 20.9448 172.766 21.1641 172.479 21.1641C171.52 21.1367 170.643 21.3971 169.862 21.9178C168.944 22.5345 168.477 23.5487 168.477 24.9875V31.5929C168.477 31.867 168.245 32.1 167.97 32.1H165.148C164.873 32.1 164.64 31.867 164.64 31.5929V17.7108C164.64 17.4367 164.873 17.2037 165.148 17.2037H167.97C168.245 17.2037 168.477 17.4367 168.477 17.7108V17.9848Z" fill="#263959"/>
<path d="M23.9872 16.4036H18.6105C18.3971 16.4036 18.1838 16.5748 18.1838 16.8317V23.0378C18.1838 23.2518 18.3544 23.4659 18.6105 23.4659H22.0242C22.2376 23.4659 22.4509 23.2946 22.4509 23.0378V21.1117C22.4509 20.8978 22.6216 20.6837 22.8777 20.6837H27.6997C28.0838 20.6837 28.2545 21.1546 27.9984 21.4113L26.7182 22.6526C26.3769 22.995 26.2062 23.5087 26.2915 24.0222L27.3156 30.3997C27.3584 30.7421 27.0169 30.9988 26.7182 30.8277L21.0001 27.8316C20.5734 27.6175 20.0187 27.6175 19.592 27.8316L13.8738 30.8277C13.5751 30.9988 13.1911 30.7421 13.2764 30.3997L14.3858 24.0222C14.4712 23.5087 14.3005 22.995 13.9591 22.6526L9.30781 18.1585C9.05178 17.9017 9.1798 17.4736 9.52118 17.4308L15.8794 16.4893C16.3915 16.4036 16.8182 16.104 17.0316 15.6332L19.8907 9.85501C20.0613 9.5554 20.488 9.5554 20.6587 9.85501L22.5363 13.6643C22.7924 14.1779 23.3471 14.5204 23.9018 14.5204H37.1731C37.5144 14.5204 37.5571 14.0495 37.2157 14.0067L27.1449 12.5514C26.8462 12.5087 26.6329 12.3375 26.5049 12.0807L20.7014 0.224707C20.5307 -0.0749023 20.104 -0.0749023 19.9333 0.224707L14.0871 12.0807C13.9591 12.3375 13.7031 12.5087 13.4471 12.5514L0.389241 14.4347C0.00518699 14.5204 -0.122831 14.9484 0.133205 15.1623L9.60652 24.4074C9.81989 24.6215 9.90523 24.8783 9.86256 25.1779L7.64359 38.2323C7.60092 38.5747 7.9423 38.8315 8.24101 38.6603L19.9333 32.4969C20.1893 32.3686 20.488 32.3686 20.744 32.4969L32.4364 38.6603C32.7351 38.8315 33.1191 38.5747 33.0338 38.2323L30.8148 25.1779C30.7722 24.9211 30.8575 24.6215 31.0709 24.4074L38.5386 17.1312C38.7946 16.8745 38.6239 16.4036 38.2398 16.4036H23.9872Z" fill="#263959"/>
</svg>
