<svg width="24" height="24" viewBox="0 0 24 24" fill="none" xmlns="http://www.w3.org/2000/svg">
<path d="M14.6589 10.0246H11.373C11.2426 10.0246 11.1123 10.1292 11.1123 10.2862V14.0789C11.1123 14.2097 11.2165 14.3405 11.373 14.3405H13.4592C13.5897 14.3405 13.72 14.2359 13.72 14.0789V12.9019C13.72 12.7711 13.8243 12.6403 13.9808 12.6403H16.9276C17.1624 12.6403 17.2667 12.928 17.1102 13.0849L16.3278 13.8435C16.1193 14.0528 16.0149 14.3667 16.0671 14.6805L16.693 18.5779C16.719 18.7872 16.5104 18.9441 16.3278 18.8395L12.8334 17.0085C12.5726 16.8777 12.2336 16.8777 11.9728 17.0085L8.47834 18.8395C8.29578 18.9441 8.0611 18.7872 8.11323 18.5779L8.79125 14.6805C8.84345 14.3667 8.73912 14.0528 8.53047 13.8435L5.68797 11.097C5.5315 10.9401 5.60973 10.6785 5.81836 10.6524L9.70402 10.0769C10.0169 10.0246 10.2777 9.84153 10.4081 9.55379L12.1554 6.02261C12.2597 5.83951 12.5204 5.83951 12.6248 6.02261L13.7722 8.35055C13.9287 8.66446 14.2677 8.87371 14.6067 8.87371H22.717C22.9256 8.87371 22.9517 8.58596 22.7431 8.5598L16.5886 7.67047C16.4061 7.64437 16.2757 7.53971 16.1975 7.38279L12.6509 0.137323C12.5465 -0.0457745 12.2857 -0.0457745 12.1814 0.137323L8.6087 7.38279C8.53047 7.53971 8.37401 7.64437 8.21756 7.67047L0.23763 8.82138C0.00292574 8.87371 -0.0753086 9.13529 0.0811602 9.26604L5.87051 14.9159C6.00091 15.0468 6.05306 15.2037 6.02698 15.3868L4.67092 23.3646C4.64484 23.5739 4.85347 23.7308 5.03602 23.6261L12.1814 19.8596C12.3379 19.7811 12.5204 19.7811 12.6769 19.8596L19.8223 23.6261C20.0049 23.7308 20.2396 23.5739 20.1874 23.3646L18.8313 15.3868C18.8053 15.2298 18.8574 15.0468 18.9879 14.9159L23.5515 10.4693C23.708 10.3124 23.6037 10.0246 23.369 10.0246H14.6589Z" fill="#3EE8B5"/>
</svg>
