<svg width="124" height="124" viewBox="0 0 124 124" fill="none" xmlns="http://www.w3.org/2000/svg">
<path d="M27.9497 85.2601C21.6839 84.2974 18.2022 78.2796 20.1698 71.798L32.3113 31.6885C34.2647 25.2205 40.9255 20.74 47.1913 21.7028L85.9133 27.5739C92.1791 28.5366 95.6608 34.5544 93.6939 41.0082L81.5659 81.1319C79.5983 87.6135 72.9375 92.094 66.6853 91.1455L27.9497 85.2601Z" fill="url(#paint0_linear_1_3656)"/>
<path d="M24.5197 84.0684C24.3408 83.9668 24.162 83.8652 23.9974 83.75C23.654 83.5331 23.3255 83.2748 23.0113 83.0028C22.8202 82.8313 22.6141 82.7012 22.4373 82.5159L32.9215 93.0964C33.0167 93.1962 33.0983 93.2816 33.2078 93.3678C33.2894 93.4532 33.3996 93.5115 33.4955 93.5833C33.8097 93.8553 34.1246 94.0994 34.4816 94.3304C34.5639 94.3881 34.6455 94.4735 34.7421 94.5175C34.8244 94.5751 34.9216 94.5913 35.0039 94.6489C35.3616 94.8521 35.7342 95.0138 36.1068 95.1755C36.2863 95.2492 36.4516 95.3366 36.6318 95.3824C37.1988 95.5764 37.7944 95.7431 38.4335 95.841L77.1692 101.726C77.6832 101.808 78.1985 101.833 78.7145 101.831C78.8539 101.834 78.9796 101.823 79.119 101.826C79.5935 101.808 80.068 101.791 80.5439 101.718C80.5717 101.719 80.6139 101.706 80.6418 101.706C80.6418 101.706 80.656 101.693 80.6696 101.707C81.3134 101.61 81.9306 101.456 82.5628 101.261C82.6192 101.235 82.6749 101.236 82.717 101.223C82.7592 101.21 82.7877 101.183 82.8299 101.17C83.3077 101.013 83.8005 100.815 84.2518 100.602C84.2939 100.589 84.3082 100.575 84.3361 100.576C84.4068 100.536 84.4775 100.495 84.5624 100.441C84.9009 100.282 85.24 100.094 85.5656 99.8922C85.6362 99.852 85.7069 99.8117 85.7776 99.7715C85.834 99.7448 85.8911 99.6903 85.9475 99.6637C86.3016 99.4346 86.6421 99.1912 86.9968 98.9342C87.0396 98.8933 87.096 98.8667 87.1388 98.8258C87.1531 98.8122 87.1531 98.8122 87.1674 98.7986C87.5656 98.4728 87.9502 98.1328 88.3355 97.765C88.3783 97.7241 88.4211 97.6832 88.4497 97.656C88.4925 97.6151 88.5359 97.5464 88.5787 97.5055C89.0218 97.0552 89.4233 96.5901 89.7977 96.0965L89.8119 96.0829C89.9417 95.9045 90.0579 95.7119 90.1876 95.5335C90.2888 95.3824 90.4037 95.2456 90.477 95.0938C90.6074 94.8876 90.7242 94.6671 90.8268 94.4602C90.9001 94.3085 91.0014 94.1574 91.0883 94.0199C91.2194 93.7858 91.309 93.5368 91.4265 93.2884C91.4856 93.1503 91.5583 93.0264 91.6173 92.8883C91.766 92.5012 91.9147 92.1141 92.0362 91.6985L104.178 51.5891C105.435 47.4201 104.442 43.4379 101.896 40.8851L91.4115 30.3046C93.9438 32.8711 94.9505 36.8396 93.6936 41.0086L81.5656 81.1323C81.4441 81.5479 81.2954 81.935 81.1468 82.3221C81.1019 82.4466 81.0435 82.5568 80.9851 82.6671C80.8812 82.9297 80.7495 83.1916 80.632 83.44C80.5587 83.5917 80.4717 83.7292 80.3848 83.8667C80.2679 84.0872 80.1511 84.3077 80.0207 84.514C79.9195 84.6651 79.8182 84.8162 79.717 84.9673C79.5873 85.1457 79.4568 85.3519 79.3271 85.5303C78.9527 86.0239 78.5369 86.5026 78.1082 86.9392C78.0225 87.021 77.9505 87.117 77.8649 87.1987C77.4939 87.553 77.1086 87.9208 76.6968 88.2323C76.6397 88.2868 76.5833 88.3135 76.5262 88.368C76.1851 88.6392 75.831 88.8683 75.4769 89.0975C75.3634 89.1786 75.2221 89.2591 75.095 89.326C74.7694 89.5279 74.4303 89.7155 74.0918 89.8752C73.979 89.9285 73.894 89.9824 73.7812 90.0356C73.3156 90.2623 72.8371 90.4468 72.3593 90.6034C72.275 90.6294 72.1764 90.6691 72.0786 90.6808C71.4607 90.8622 70.8292 91.0294 70.1854 91.1265C70.1433 91.1395 70.1018 91.1247 70.0597 91.1377C69.5838 91.2107 69.1093 91.228 68.6348 91.2453C68.4954 91.2421 68.3697 91.2533 68.2303 91.2502C67.7143 91.2526 67.1854 91.2129 66.685 91.1459L27.9493 85.2605C27.3103 85.1626 26.7146 84.9959 26.1476 84.802C25.9681 84.7282 25.8021 84.6687 25.6226 84.595C25.25 84.4333 24.8638 84.2573 24.5197 84.0684Z" fill="url(#paint1_linear_1_3656)"/>
<path d="M52.4234 64.7521C58.3976 65.6665 64.6406 61.7484 66.3672 56.0143C68.0938 50.2802 64.639 44.8905 58.6642 44.004C52.69 43.0896 46.447 47.0077 44.7204 52.7418C42.9938 58.4759 46.4486 63.8656 52.4234 64.7521ZM57.5735 47.6328C61.4638 48.2218 63.6811 51.7154 62.5741 55.4415C61.4536 59.1534 57.4044 61.7122 53.5284 61.1096C49.6381 60.5207 47.4208 57.0271 48.5277 53.301C49.6483 49.5891 53.6968 47.0582 57.5735 47.6328ZM38.533 63.0891C38.9416 61.7457 40.3857 60.8298 41.789 61.0425C43.1923 61.2551 43.9849 62.5138 43.5906 63.8436C43.182 65.187 41.7378 66.1029 40.3346 65.8902C38.9313 65.6776 38.1244 64.4325 38.533 63.0891ZM32.0918 59.5429C31.5518 61.72 31.4601 63.2239 31.5947 64.5934C31.7422 66.005 32.1031 67.2401 32.9366 68.5415C33.77 69.843 34.7392 70.7152 35.9769 71.44C37.1731 72.15 38.5956 72.7256 40.8025 73.1514C43.023 73.5915 43.7308 73.7328 49.4554 74.5858C55.1658 75.4524 55.9027 75.5386 58.1837 75.7848C60.4647 76.031 62.0989 75.9141 63.5842 75.6126C65.1252 75.3124 66.5043 74.7855 68.0049 73.843C69.5055 72.9005 70.5758 71.8786 71.512 70.6307C72.4196 69.41 73.2061 68.0053 73.9685 65.8611C74.7166 63.7305 74.9563 63.0386 76.6076 57.5399C78.2589 52.0412 78.4428 51.3481 78.9964 49.1853C79.5365 47.0082 79.6282 45.5043 79.4936 44.1348C79.346 42.7232 78.9851 41.4881 78.1517 40.1867C77.3182 38.8852 76.349 38.013 75.1114 37.2882C73.9152 36.5782 72.4927 36.0026 70.2858 35.5768C68.0652 35.1368 67.3574 34.9955 61.6328 34.1425C55.9225 33.2758 55.1855 33.1896 52.9046 32.9435C50.6236 32.6973 48.9893 32.8141 47.5041 33.1156C45.963 33.4158 44.5839 33.9427 43.0833 34.8852C41.5827 35.8278 40.5125 36.8496 39.5763 38.0976C38.6687 39.3183 37.8821 40.7229 37.1197 42.8672C36.3716 44.9978 36.132 45.6896 34.4807 51.1883C32.8294 56.687 32.6455 57.3801 32.0918 59.5429ZM40.8531 43.6059C41.5414 41.6413 42.2072 40.6244 42.7113 39.9524C43.3737 39.0748 44.0437 38.4623 44.9781 37.8697C45.9269 37.2634 46.7575 36.9334 47.8641 36.7211C48.6907 36.5583 49.9075 36.4042 51.9941 36.6182C54.2471 36.8637 54.9148 36.9344 60.5415 37.7992C66.1546 38.6497 66.8209 38.7761 69.0279 39.2019C71.054 39.6098 72.0739 40.1066 72.7342 40.4839C73.6142 41.0056 74.1869 41.5482 74.6972 42.3684C75.2217 43.1749 75.4825 43.9336 75.57 44.9395C75.6356 45.694 75.6647 46.8101 75.1708 48.807C74.6314 50.9562 74.4625 51.6077 72.8417 56.9956C71.221 62.3835 70.9963 63.0338 70.2624 65.1508C69.574 67.1154 68.9083 68.1323 68.4042 68.8043C67.7418 69.6819 67.0718 70.2944 66.1373 70.887C65.1886 71.4933 64.358 71.8233 63.2513 72.0356C62.4247 72.1984 61.2079 72.3525 59.1214 72.1385C56.8683 71.893 56.2007 71.8223 50.574 70.9575C44.9609 70.107 44.2946 69.9806 42.0876 69.5548C40.0615 69.147 39.0415 68.6501 38.3812 68.2728C37.5013 67.7512 36.9286 67.2085 36.4183 66.3884C35.8937 65.5818 35.633 64.8231 35.5455 63.8172C35.4798 63.0627 35.4507 61.9466 35.9446 59.9498C36.484 57.8005 36.653 57.149 38.2737 51.7611C39.8945 46.3732 40.1049 45.7365 40.8531 43.6059Z" fill="white"/>
<defs>
<linearGradient id="paint0_linear_1_3656" x1="19.1721" y1="86.2886" x2="98.5187" y2="23.5487" gradientUnits="userSpaceOnUse">
<stop stop-color="#FFBE1E"/>
<stop offset="0.5221" stop-color="#FF47C3"/>
<stop offset="0.5728" stop-color="#EE42BD"/>
<stop offset="0.673" stop-color="#C235AE"/>
<stop offset="0.8132" stop-color="#7B1F95"/>
<stop offset="0.9867" stop-color="#1B0274"/>
<stop offset="1" stop-color="#130071"/>
</linearGradient>
<linearGradient id="paint1_linear_1_3656" x1="103.278" y1="34.9439" x2="39.0524" y2="109.067" gradientUnits="userSpaceOnUse">
<stop stop-color="#3D003B"/>
<stop offset="0.5519" stop-color="#FF47C3"/>
<stop offset="0.6316" stop-color="#EE43B3"/>
<stop offset="0.7893" stop-color="#C23889"/>
<stop offset="1" stop-color="#7F2849"/>
</linearGradient>
</defs>
</svg>
