<svg width="110" height="110" viewBox="0 0 110 110" fill="none" xmlns="http://www.w3.org/2000/svg">
<g filter="url(#filter0_d_1_2708)">
<path d="M55 68C68.8071 68 80 56.8071 80 43C80 29.1929 68.8071 18 55 18C41.1929 18 30 29.1929 30 43C30 56.8071 41.1929 68 55 68Z" fill="#263959"/>
<path d="M55 68C68.8071 68 80 56.8071 80 43C80 29.1929 68.8071 18 55 18C41.1929 18 30 29.1929 30 43C30 56.8071 41.1929 68 55 68Z" stroke="white"/>
</g>
<g clip-path="url(#clip0_1_2708)">
<path d="M58.75 35.5H51.25C49.1789 35.5 47.5 37.1789 47.5 39.25V46.75C47.5 48.8211 49.1789 50.5 51.25 50.5H58.75C60.8211 50.5 62.5 48.8211 62.5 46.75V39.25C62.5 37.1789 60.8211 35.5 58.75 35.5Z" stroke="white" stroke-width="2" stroke-linecap="round" stroke-linejoin="round"/>
<path d="M57.9988 42.5287C58.0914 43.1529 57.9847 43.7904 57.6941 44.3505C57.4035 44.9106 56.9437 45.3648 56.38 45.6485C55.8164 45.9322 55.1776 46.0309 54.5546 45.9307C53.9316 45.8304 53.3561 45.5363 52.9099 45.0901C52.4637 44.6439 52.1696 44.0684 52.0694 43.4454C51.9691 42.8224 52.0679 42.1836 52.3515 41.62C52.6352 41.0563 53.0894 40.5965 53.6495 40.3059C54.2096 40.0153 54.8471 39.9086 55.4713 40.0012C56.108 40.0956 56.6974 40.3923 57.1526 40.8474C57.6077 41.3026 57.9044 41.892 57.9988 42.5287Z" stroke="white" stroke-width="2" stroke-linecap="round" stroke-linejoin="round"/>
<ellipse cx="59.125" cy="38.875" rx="1.125" ry="1.125" fill="white"/>
</g>
<defs>
<filter id="filter0_d_1_2708" x="0" y="0" width="110" height="110" filterUnits="userSpaceOnUse" color-interpolation-filters="sRGB">
<feFlood flood-opacity="0" result="BackgroundImageFix"/>
<feColorMatrix in="SourceAlpha" type="matrix" values="0 0 0 0 0 0 0 0 0 0 0 0 0 0 0 0 0 0 127 0" result="hardAlpha"/>
<feOffset dy="12"/>
<feGaussianBlur stdDeviation="15"/>
<feColorMatrix type="matrix" values="0 0 0 0 0 0 0 0 0 0 0 0 0 0 0 0 0 0 0.08 0"/>
<feBlend mode="normal" in2="BackgroundImageFix" result="effect1_dropShadow_1_2708"/>
<feBlend mode="normal" in="SourceGraphic" in2="effect1_dropShadow_1_2708" result="shape"/>
</filter>
<clipPath id="clip0_1_2708">
<rect width="18" height="18" fill="white" transform="translate(46 34)"/>
</clipPath>
</defs>
</svg>
