<svg width="163" height="46" viewBox="0 0 163 46" fill="none" xmlns="http://www.w3.org/2000/svg">
<path d="M8.49241 0.159688C5.17245 1.55121 1.52526 5.47479 0.372016 10.4023C-1.08622 16.6419 4.98501 19.282 5.48379 18.4179C6.07154 17.4012 4.39409 17.0581 4.05097 13.8176C3.60619 9.63347 5.55051 4.96012 7.99679 2.91096C8.4511 2.52972 8.42887 3.06028 8.42887 4.04197C8.42887 5.79567 8.33356 21.5408 8.33356 24.829C8.33356 29.2768 8.14929 30.681 7.81888 32.0662C7.4853 33.4736 6.94839 34.4235 7.35504 34.7889C7.80935 35.1987 9.75367 34.2234 10.8783 32.6539C12.2254 30.7732 12.6987 28.5112 12.7845 26.0553C12.8862 23.0976 12.883 18.402 12.8862 15.7238C12.8894 13.268 12.9275 6.07524 12.8417 1.75136C12.8226 0.693423 9.88075 -0.421701 8.49241 0.159688Z" fill="#263959" fill-opacity="0.2"/>
<path d="M126.34 20.9722C126.232 23.285 125.72 25.0895 125.085 26.3667C123.855 28.8352 121.304 29.6009 120.221 26.0522C119.63 24.1174 119.604 20.8896 120.027 18.1923C120.459 15.4442 121.666 13.3665 123.661 13.5539C125.634 13.7382 126.556 16.2766 126.34 20.9722ZM93.1243 35.3131C93.0988 39.1541 92.492 42.5217 91.1958 43.5002C89.3563 44.8885 86.8846 43.8465 87.3961 41.0444C87.8504 38.5632 89.9917 36.0311 93.1274 32.9367C93.1306 32.9367 93.137 33.642 93.1243 35.3131ZM92.6223 20.9499C92.5111 23.0563 91.9647 25.1721 91.3674 26.3667C90.1379 28.8352 87.5677 29.604 86.5034 26.0522C85.7759 23.625 85.9506 20.4829 86.3096 18.5036C86.7766 15.9366 87.9108 13.5539 89.9441 13.5539C91.9265 13.5539 92.9019 15.7238 92.6223 20.9499ZM73.3824 20.9182C73.2617 23.1484 72.8265 25.0133 72.1275 26.3667C70.8631 28.8162 68.366 29.5945 67.2635 26.0522C66.4693 23.4979 66.7393 20.0159 67.0698 18.1351C67.559 15.3457 68.7885 13.3665 70.7042 13.5539C72.674 13.7445 73.6334 16.2766 73.3824 20.9182ZM161.56 23.5201C161.077 23.5201 160.858 24.0157 160.677 24.8513C160.048 27.755 159.384 28.4127 158.529 28.4127C157.573 28.4127 156.715 26.9735 156.496 24.0951C156.321 21.83 156.35 17.6649 156.572 13.5189C156.616 12.6675 156.381 11.8256 154.097 10.9932C153.115 10.6374 151.686 10.11 150.974 11.8288C148.963 16.6801 148.178 20.5337 147.991 22.0968C147.981 22.1794 147.883 22.1953 147.864 22.0047C147.746 20.753 147.483 18.4751 147.451 13.6873C147.444 12.7533 147.247 11.959 146.215 11.3078C145.548 10.8852 143.514 10.1386 142.784 11.0282C142.152 11.7557 141.418 13.7096 140.655 16.0288C140.036 17.9127 139.604 19.1867 139.604 19.1867C139.604 19.1867 139.613 14.1035 139.619 12.1751C139.623 11.4475 139.124 11.2061 138.975 11.1616C138.298 10.9646 136.964 10.6374 136.398 10.6374C135.699 10.6374 135.528 11.0282 135.528 11.5969C135.528 11.6731 135.416 18.2876 135.416 22.9165C135.416 23.1166 135.416 23.3358 135.416 23.5709C135.029 25.6964 133.777 28.5842 132.414 28.5842C131.048 28.5842 130.406 27.377 130.406 21.8617C130.406 18.6434 130.502 17.2456 130.549 14.9168C130.578 13.5761 130.629 12.5468 130.625 12.3117C130.616 11.5937 129.377 11.2347 128.799 11.1013C128.22 10.9678 127.715 10.9138 127.325 10.9361C126.769 10.9678 126.375 11.3332 126.375 11.8351C126.375 12.1052 126.378 12.6167 126.378 12.6167C125.66 11.492 124.51 10.7073 123.741 10.4817C121.676 9.86859 119.522 10.4119 117.895 12.6866C116.602 14.4943 115.824 16.5403 115.519 19.4822C115.293 21.633 115.366 23.8124 115.767 25.655C115.287 27.736 114.391 28.5874 113.413 28.5874C111.992 28.5874 110.963 26.2682 111.084 22.262C111.163 19.6251 111.691 17.7761 112.266 15.0979C112.51 13.9574 112.313 13.3601 111.811 12.7882C111.351 12.264 110.372 11.994 108.965 12.3244C107.961 12.5595 106.528 12.8137 105.216 13.0075C105.216 13.0075 105.295 12.6929 105.359 12.1338C105.699 9.21413 102.528 9.4524 101.515 10.3833C100.911 10.9392 100.498 11.5969 100.342 12.7787C100.095 14.6531 101.623 15.5363 101.623 15.5363C101.121 17.8301 99.8912 20.8292 98.6236 22.9959C97.9437 24.1587 97.4227 25.0165 96.7524 25.9314C96.7492 25.5915 96.7492 25.2484 96.746 24.9116C96.7301 20.0858 96.7937 16.2893 96.8223 14.92C96.8509 13.5793 96.9049 12.5786 96.9017 12.3435C96.8953 11.8193 96.5872 11.6223 95.9518 11.3713C95.3895 11.1489 94.7223 10.9964 94.0329 10.9424C93.1624 10.8757 92.6382 11.3364 92.6509 11.8828C92.6541 11.9845 92.6541 12.6199 92.6541 12.6199C91.9361 11.4952 90.786 10.7105 90.0172 10.4849C87.9521 9.87176 85.7981 10.415 84.1715 12.6898C82.8785 14.4975 82.0334 17.0327 81.7951 19.4631C81.5727 21.7283 81.614 23.6504 81.9158 25.2706C81.5886 26.8941 80.645 28.5906 79.5776 28.5906C78.2115 28.5906 77.4363 27.3833 77.4363 21.8681C77.4363 18.6498 77.5316 17.2519 77.5792 14.9232C77.6078 13.5825 77.6587 12.5531 77.6555 12.318C77.646 11.6 76.4069 11.241 75.8287 11.1076C75.2251 10.9678 74.7041 10.917 74.3038 10.9456C73.7764 10.9837 73.4047 11.4571 73.4047 11.8097V12.623C72.6867 11.4984 71.5366 10.7137 70.7678 10.4881C68.7027 9.87494 66.5614 10.4277 64.9221 12.6929C63.8546 14.1702 62.9905 15.8064 62.5457 19.4313C62.4186 20.4797 62.3615 21.4614 62.3678 22.3764C61.9421 24.9815 60.0613 27.9806 58.5237 27.9806C57.6246 27.9806 56.7668 26.2333 56.7668 22.513C56.7668 17.5569 57.0749 10.5008 57.1258 9.82093C57.1258 9.82093 59.0701 9.78916 59.445 9.78281C60.414 9.77328 61.2908 9.79552 62.5839 9.7288C63.232 9.69703 63.8546 7.37147 63.1875 7.08237C62.8857 6.95211 60.7444 6.83774 59.8961 6.81868C59.1813 6.80279 57.1957 6.65665 57.1957 6.65665C57.1957 6.65665 57.3736 1.97377 57.4149 1.47815C57.4498 1.06515 56.9161 0.852288 56.6111 0.725208C55.8677 0.410686 55.2005 0.261367 54.4126 0.0961639C53.3229 -0.129402 52.8273 0.0898099 52.732 1.01114C52.5859 2.40584 52.5128 6.4978 52.5128 6.4978C51.7122 6.4978 48.98 6.34213 48.1794 6.34213C47.436 6.34213 46.6322 9.53818 47.6615 9.57948C48.8434 9.62396 50.9052 9.66526 52.2713 9.70656C52.2713 9.70656 52.211 16.8802 52.211 19.0946C52.211 19.3297 52.211 19.5584 52.2142 19.7776C51.4612 23.698 48.8148 25.8139 48.8148 25.8139C49.3835 23.2215 48.2207 21.274 46.1302 19.6251C45.3582 19.0183 43.8364 17.8682 42.1336 16.607C42.1336 16.607 43.1184 15.6348 43.9953 13.6778C44.6148 12.2926 44.6434 10.7073 43.1216 10.3578C40.6086 9.77963 38.534 11.6255 37.9177 13.5952C37.438 15.1233 37.6953 16.2543 38.6325 17.433C38.7024 17.5188 38.7755 17.6077 38.8517 17.6967C38.2831 18.7896 37.5047 20.2637 36.8439 21.4042C35.0108 24.5749 33.6288 27.0815 32.5804 27.0815C31.7448 27.0815 31.7543 24.5367 31.7543 22.1508C31.7543 20.0953 31.9068 17.0073 32.0276 13.8081C32.0689 12.7501 31.5383 12.1465 30.6519 11.6032C30.1118 11.2728 28.9618 10.6184 28.2978 10.6184C27.3002 10.6184 24.425 10.755 21.7087 18.6148C21.3656 19.6061 20.6921 21.4106 20.6921 21.4106L20.7492 11.959C20.7492 11.7367 20.6317 11.5238 20.3617 11.3777C19.9042 11.1299 18.681 10.6215 17.5945 10.6215C17.0766 10.6215 16.8193 10.863 16.8193 11.3427L16.724 26.1316C16.724 27.2563 16.7526 28.5652 16.8638 29.1402C16.975 29.7152 17.1529 30.1823 17.3753 30.4587C17.5977 30.7351 17.855 30.9479 18.2775 31.0337C18.6715 31.1163 20.8255 31.3927 20.9399 30.5667C21.0733 29.5786 21.0797 28.5112 22.2107 24.5304C23.9739 18.3321 26.2709 15.3076 27.351 14.2306C27.5385 14.0432 27.7545 14.0304 27.745 14.3386C27.6973 15.6984 27.5353 19.0946 27.4273 21.9793C27.135 29.6994 28.5392 31.1322 30.5471 31.1322C32.0816 31.1322 34.2483 29.6072 36.5675 25.744C38.013 23.3358 39.4204 20.9753 40.4275 19.2757C41.1296 19.9269 41.9207 20.6259 42.7086 21.3756C44.5417 23.1166 45.1422 24.7687 44.7451 26.3381C44.4401 27.5358 43.29 28.7717 41.244 27.5708C40.6467 27.2213 40.3926 26.9481 39.7921 26.5541C39.4712 26.3413 38.9788 26.2777 38.6834 26.5001C37.9177 27.0783 37.4793 27.8122 37.2283 28.724C36.9837 29.6104 37.87 30.0774 38.7914 30.4873C39.5824 30.8399 41.2853 31.1576 42.3687 31.1957C46.5972 31.3355 49.9807 29.1561 52.3381 23.5265C52.7606 28.3873 54.5556 31.1385 57.6754 31.1385C59.7627 31.1385 61.8531 28.4413 62.7681 25.7885C63.0318 26.8687 63.4194 27.809 63.9214 28.6065C66.3263 32.4157 70.9902 31.596 73.3316 28.3618C74.056 27.3611 74.1672 27.0021 74.1672 27.0021C74.5103 30.0552 76.9693 31.1226 78.3767 31.1226C79.9524 31.1226 81.5823 30.3761 82.7228 27.8059C82.8562 28.0854 83.0024 28.3523 83.1612 28.6033C85.5662 32.4125 90.23 31.5928 92.5715 28.3587C92.6827 28.2062 92.778 28.0696 92.8606 27.9457L92.9305 29.9503C92.9305 29.9503 91.5929 31.1767 90.7733 31.9296C87.1579 35.2432 84.4129 37.7562 84.2096 40.6822C83.9523 44.4152 86.9768 45.8003 89.2706 45.9814C91.701 46.1752 93.7851 44.8314 95.0622 42.9506C96.1869 41.2954 96.9239 37.734 96.8699 34.217C96.8477 32.8096 96.8127 31.0178 96.7841 29.0989C98.0518 27.6248 99.4846 25.7631 100.8 23.5805C102.236 21.2041 103.774 18.0144 104.558 15.53C104.558 15.53 105.896 15.5427 107.319 15.4474C107.777 15.4188 107.907 15.5109 107.821 15.8445C107.719 16.248 106.02 22.8021 107.57 27.1705C108.631 30.16 111.023 31.1226 112.444 31.1226C114.105 31.1226 115.694 29.8677 116.545 28.006C116.647 28.2125 116.755 28.4159 116.872 28.6001C119.277 32.4093 123.925 31.5833 126.282 28.3555C126.816 27.628 127.118 26.9957 127.118 26.9957C127.623 30.1568 130.082 31.1322 131.49 31.1322C132.957 31.1322 134.349 30.5317 135.477 27.8599C135.524 29.0354 135.597 29.998 135.715 30.303C135.788 30.4872 136.204 30.7223 136.506 30.8335C137.847 31.3323 139.216 31.0972 139.721 30.9924C140.071 30.9225 140.344 30.6397 140.382 29.9122C140.48 28.006 140.42 24.8004 140.998 22.4177C141.97 18.421 142.876 16.8707 143.305 16.1018C143.546 15.6729 143.816 15.5999 143.826 16.0574C143.845 16.9787 143.893 19.6823 144.267 23.3168C144.544 25.9886 144.912 27.5708 145.195 28.0696C146.005 29.4992 147.003 29.5659 147.816 29.5659C148.334 29.5659 149.417 29.423 149.319 28.5143C149.271 28.0696 149.354 25.331 150.31 21.3915C150.936 18.8182 151.978 16.4958 152.353 15.6475C152.493 15.333 152.556 15.5808 152.553 15.6285C152.474 17.4012 152.296 23.1929 153.017 26.3635C153.995 30.6556 156.826 31.1354 157.811 31.1354C159.917 31.1354 161.636 29.5342 162.217 25.3215C162.386 24.3048 162.179 23.5201 161.56 23.5201Z" fill="#263959" fill-opacity="0.2"/>
</svg>
