<svg width="179" height="40" viewBox="0 0 179 40" fill="none" xmlns="http://www.w3.org/2000/svg">
<path d="M70.1014 21.5838C70.3845 21.5838 70.6252 21.8245 70.6252 22.1077V23.2404C70.6252 26.3129 69.6482 28.8048 67.6801 30.7163C65.7121 32.6278 63.1776 33.5764 60.0626 33.5764C56.7495 33.5764 53.9885 32.5004 51.8079 30.334C49.6133 28.1677 48.5231 25.5341 48.5231 22.4192C48.5231 19.2901 49.5992 16.6282 51.7655 14.4619C53.9318 12.2955 56.6079 11.2053 59.8078 11.2053C61.8184 11.2053 63.6448 11.6584 65.3156 12.5788C66.8022 13.3999 67.9916 14.4477 68.8836 15.7504C69.0535 16.0052 68.9686 16.345 68.7138 16.5008L65.9811 18.0441C65.7545 18.1715 65.4572 18.1148 65.3015 17.9025C64.8059 17.1945 64.1121 16.6141 63.2342 16.1468C62.2006 15.5945 61.0538 15.3114 59.7795 15.3114C57.7264 15.3114 56.0415 15.9769 54.7248 17.3219C53.4079 18.6671 52.7425 20.3661 52.7425 22.405C52.7425 24.4298 53.4079 26.1147 54.7531 27.4314C56.0982 28.7482 57.868 29.4137 60.0909 29.4137C61.7334 29.4137 63.0926 29.0455 64.1688 28.3234C65.0182 27.7429 65.6695 26.9925 66.0802 26.0722C66.2359 25.7182 65.9952 25.3218 65.6129 25.3218H60.3741C60.0909 25.3218 59.8502 25.0811 59.8502 24.7979V22.0935C59.8502 21.8104 60.0909 21.5697 60.3741 21.5697H70.1014V21.5838Z" fill="#3EE8B5"/>
<path d="M77.4074 18.5817C77.4074 19.049 77.9879 19.2897 78.2994 18.9499C78.5684 18.6667 78.88 18.4118 79.2339 18.2136C79.9277 17.8171 80.6781 17.5764 81.4993 17.5057C81.8109 17.4773 82.0799 17.718 82.0799 18.0296V21.3427C82.0799 21.64 81.8392 21.8666 81.5419 21.8666C80.5507 21.8383 79.6446 22.1073 78.8374 22.6453C77.8889 23.2824 77.4074 24.3303 77.4074 25.8169V32.6416C77.4074 32.9247 77.1667 33.1654 76.8836 33.1654H73.9668C73.6836 33.1654 73.4429 32.9247 73.4429 32.6416V18.2986C73.4429 18.0154 73.6836 17.7747 73.9668 17.7747H76.8836C77.1667 17.7747 77.4074 18.0154 77.4074 18.2986V18.5817Z" fill="#3EE8B5"/>
<path d="M96.0125 17.7751H98.9294C99.2125 17.7751 99.4532 18.0158 99.4532 18.2989V32.6278C99.4532 32.9109 99.2125 33.1516 98.9294 33.1516H96.0125C95.7294 33.1516 95.4887 32.9109 95.4887 32.6278V32.6136C95.4887 32.1746 94.9789 31.9339 94.6392 32.203C93.5489 33.1092 92.1614 33.5622 90.4764 33.5622C88.4234 33.5622 86.6677 32.7835 85.2094 31.2119C83.7509 29.6402 83.0146 27.7288 83.0146 25.4492C83.0146 23.1696 83.7509 21.2582 85.2094 19.6865C86.6677 18.1149 88.4375 17.3362 90.4764 17.3362C92.1614 17.3362 93.5348 17.7892 94.6392 18.7096C94.9789 18.9928 95.4887 18.752 95.4887 18.2989V18.2848C95.4887 18.0016 95.7152 17.7751 96.0125 17.7751ZM88.1685 28.5783C88.9614 29.3854 89.9809 29.7959 91.2127 29.7959C92.4445 29.7959 93.4639 29.3854 94.2711 28.5783C95.0781 27.7712 95.4887 26.7235 95.4887 25.4633C95.4887 24.1891 95.0781 23.1555 94.2711 22.3484C93.4639 21.5413 92.4445 21.1308 91.2127 21.1308C89.9809 21.1308 88.9756 21.5413 88.1685 22.3484C87.3756 23.1555 86.9651 24.2032 86.9651 25.4633C86.9792 26.7235 87.3756 27.7712 88.1685 28.5783Z" fill="#3EE8B5"/>
<path d="M111.998 17.35C114.065 17.35 115.835 18.1288 117.293 19.7005C118.751 21.2721 119.488 23.1836 119.488 25.4632C119.488 27.7428 118.751 29.6542 117.293 31.2258C115.835 32.7975 114.065 33.5762 111.998 33.5762C110.327 33.5762 108.953 33.1231 107.877 32.2169C107.538 31.9338 107.028 32.1745 107.028 32.6133C107.028 32.8966 106.787 33.1373 106.504 33.1373H103.587C103.304 33.1373 103.063 32.8966 103.063 32.6133V12.1537C103.063 11.8706 103.304 11.6299 103.587 11.6299H106.504C106.787 11.6299 107.028 11.8706 107.028 12.1537V18.2987C107.028 18.7376 107.538 18.9783 107.877 18.6952C108.939 17.789 110.313 17.35 111.998 17.35ZM108.217 28.5781C109.01 29.3852 110.03 29.7958 111.261 29.7958C112.493 29.7958 113.513 29.3852 114.32 28.5781C115.126 27.771 115.537 26.7233 115.537 25.4632C115.537 24.1889 115.126 23.1552 114.32 22.3482C113.513 21.5412 112.493 21.1305 111.261 21.1305C110.03 21.1305 109.024 21.5412 108.217 22.3482C107.424 23.1552 107.014 24.203 107.014 25.4632C107.014 26.7233 107.41 27.771 108.217 28.5781Z" fill="#3EE8B5"/>
<path d="M129.824 33.5762C127.686 33.5762 125.902 33.0948 124.444 32.1461C123.112 31.2825 122.15 30.1214 121.54 28.6914C121.442 28.4506 121.527 28.1675 121.754 28.0401L124.486 26.4401C124.741 26.2843 125.08 26.3835 125.222 26.6666C126.114 28.5073 127.686 29.4418 129.952 29.4418C131.141 29.4418 132.004 29.2294 132.571 28.7905C133.137 28.3515 133.406 27.8135 133.406 27.1622C133.406 26.3976 133.066 25.8171 132.387 25.3923C131.707 24.9675 130.503 24.5145 128.762 24.0189C127.8 23.7358 126.978 23.4525 126.312 23.1552C125.647 22.8721 124.982 22.4898 124.316 22.0083C123.651 21.5269 123.141 20.9181 122.801 20.1818C122.448 19.4456 122.277 18.5819 122.277 17.6049C122.277 15.6652 122.971 14.1076 124.358 12.9466C125.746 11.7856 127.403 11.2051 129.357 11.2051C131.098 11.2051 132.627 11.6299 133.959 12.4793C135.148 13.2439 136.096 14.2776 136.818 15.5802C136.96 15.8351 136.861 16.1465 136.62 16.2882L133.959 17.8173C133.704 17.9589 133.392 17.8739 133.25 17.6332C132.387 16.1041 131.084 15.3253 129.37 15.3253C128.493 15.3253 127.8 15.5235 127.29 15.92C126.794 16.3165 126.539 16.8403 126.539 17.4775C126.539 18.1571 126.822 18.6952 127.389 19.1199C127.954 19.5446 129.031 19.9978 130.631 20.4933C131.282 20.6915 131.777 20.8615 132.118 20.9748C132.458 21.088 132.91 21.2579 133.505 21.4986C134.086 21.7393 134.539 21.9516 134.865 22.1641C135.176 22.3623 135.544 22.6455 135.955 22.9995C136.365 23.3535 136.677 23.7074 136.889 24.0755C137.101 24.4436 137.285 24.8968 137.442 25.4065C137.598 25.9304 137.668 26.4968 137.668 27.1055C137.668 29.0878 136.945 30.6736 135.501 31.8346C134.015 32.9815 132.132 33.5762 129.824 33.5762Z" fill="#3EE8B5"/>
<path d="M148.017 21.5834H145.597C145.314 21.5834 145.073 21.8241 145.073 22.1073V27.9832C145.073 28.5212 145.201 28.9036 145.469 29.1442C145.738 29.3849 146.12 29.5265 146.63 29.5549C147.013 29.5832 147.465 29.5832 148.004 29.5691C148.301 29.5549 148.542 29.7956 148.542 30.0929V32.6698C148.542 32.9389 148.33 33.1654 148.06 33.1938C145.582 33.4202 143.826 33.1512 142.779 32.3725C141.661 31.5513 141.108 30.0929 141.108 27.9832V22.1073C141.108 21.8241 140.868 21.5834 140.584 21.5834H138.956C138.673 21.5834 138.432 21.3426 138.432 21.0595V18.2985C138.432 18.0153 138.673 17.7746 138.956 17.7746H140.584C140.868 17.7746 141.108 17.5339 141.108 17.2508V15.0562C141.108 14.8296 141.264 14.6172 141.476 14.5606L144.393 13.6828C144.732 13.5836 145.073 13.8385 145.073 14.1783V17.2508C145.073 17.5339 145.314 17.7746 145.597 17.7746H148.017C148.301 17.7746 148.542 18.0153 148.542 18.2985V21.0595C148.542 21.3569 148.301 21.5834 148.017 21.5834Z" fill="#3EE8B5"/>
<path d="M163.069 17.7751H165.986C166.269 17.7751 166.51 18.0158 166.51 18.2989V32.6278C166.51 32.9109 166.269 33.1516 165.986 33.1516H163.069C162.786 33.1516 162.544 32.9109 162.544 32.6278V32.6136C162.544 32.1746 162.035 31.9339 161.696 32.203C160.606 33.1092 159.218 33.5622 157.533 33.5622C155.479 33.5622 153.724 32.7835 152.266 31.2119C150.808 29.6402 150.071 27.7288 150.071 25.4492C150.071 23.1696 150.808 21.2582 152.266 19.6865C153.724 18.1149 155.494 17.3362 157.533 17.3362C159.218 17.3362 160.591 17.7892 161.696 18.7096C162.035 18.9928 162.544 18.752 162.544 18.2989V18.2848C162.544 18.0016 162.786 17.7751 163.069 17.7751ZM155.239 28.5783C156.032 29.3854 157.051 29.7959 158.284 29.7959C159.515 29.7959 160.535 29.3854 161.342 28.5783C162.148 27.7712 162.559 26.7235 162.559 25.4633C162.559 24.1891 162.148 23.1555 161.342 22.3484C160.535 21.5413 159.515 21.1308 158.284 21.1308C157.051 21.1308 156.046 21.5413 155.239 22.3484C154.446 23.1555 154.035 24.2032 154.035 25.4633C154.035 26.7235 154.432 27.7712 155.239 28.5783Z" fill="#3EE8B5"/>
<path d="M174.07 18.5817C174.07 19.049 174.651 19.2897 174.963 18.9499C175.231 18.6667 175.543 18.4118 175.897 18.2136C176.591 17.8171 177.341 17.5764 178.163 17.5057C178.474 17.4773 178.743 17.718 178.743 18.0296V21.3427C178.743 21.64 178.502 21.8666 178.205 21.8666C177.214 21.8383 176.308 22.1073 175.501 22.6453C174.552 23.2824 174.07 24.3303 174.07 25.8169V32.6416C174.07 32.9247 173.83 33.1654 173.546 33.1654H170.63C170.346 33.1654 170.106 32.9247 170.106 32.6416V18.2986C170.106 18.0154 170.346 17.7747 170.63 17.7747H173.546C173.83 17.7747 174.07 18.0154 174.07 18.2986V18.5817Z" fill="#3EE8B5"/>
<path d="M24.7835 16.9482H19.2283C19.0078 16.9482 18.7874 17.125 18.7874 17.3904V23.8026C18.7874 24.0237 18.9637 24.2449 19.2283 24.2449H22.7553C22.9758 24.2449 23.1962 24.0679 23.1962 23.8026V21.8126C23.1962 21.5915 23.3726 21.3704 23.6371 21.3704H28.6192C29.0161 21.3704 29.1925 21.8568 28.9278 22.1221L27.6052 23.4046C27.2525 23.7584 27.0761 24.2891 27.1643 24.8197L28.2224 31.4088C28.2666 31.7626 27.9138 32.0279 27.6052 31.8511L21.6973 28.7555C21.2564 28.5343 20.6832 28.5343 20.2424 28.7555L14.3344 31.8511C14.0257 32.0279 13.629 31.7626 13.7171 31.4088L14.8634 24.8197C14.9516 24.2891 14.7753 23.7584 14.4225 23.4046L9.6168 18.7613C9.35227 18.496 9.48454 18.0537 9.83725 18.0095L16.4066 17.0366C16.9356 16.9482 17.3765 16.6386 17.597 16.1522L20.551 10.1822C20.7273 9.87261 21.1682 9.87261 21.3445 10.1822L23.2845 14.1179C23.549 14.6486 24.1221 15.0024 24.6953 15.0024H38.4071C38.7598 15.0024 38.8039 14.5159 38.4511 14.4717L28.0461 12.9681C27.7374 12.924 27.517 12.7471 27.3848 12.4818L21.3887 0.232167C21.2123 -0.0773889 20.7714 -0.0773889 20.595 0.232167L14.5548 12.4818C14.4225 12.7471 14.158 12.924 13.8935 12.9681L0.402163 14.9139C0.00535918 15.0024 -0.126908 15.4446 0.137627 15.6657L9.92543 25.2177C10.1459 25.4389 10.2341 25.7042 10.19 26.0137L7.89733 39.5015C7.85324 39.8553 8.20596 40.1206 8.51458 39.9437L20.595 33.5757C20.8595 33.4431 21.1682 33.4431 21.4327 33.5757L33.5132 39.9437C33.8218 40.1206 34.2186 39.8553 34.1304 39.5015L31.8377 26.0137C31.7937 25.7484 31.8818 25.4389 32.1023 25.2177L39.8179 17.6999C40.0824 17.4346 39.9061 16.9482 39.5093 16.9482H24.7835Z" fill="#3EE8B5"/>
</svg>
