<svg width="95" height="98" viewBox="0 0 95 98" fill="none" xmlns="http://www.w3.org/2000/svg">
<path d="M34.0965 8.61938C36.7827 2.77961 43.6308 1.07656 49.3871 4.8183L85.0407 27.8579C90.7986 31.5798 93.2736 39.3106 90.589 45.1304L73.9517 81.17C71.2655 87.0098 64.4174 88.7128 58.6794 84.9926L23.0258 61.953C17.2679 58.2311 14.773 50.4987 17.4592 44.659L34.0965 8.61938Z" fill="#1958C4"/>
<path d="M36.2189 5.60084C36.3709 5.45253 36.5214 5.32415 36.6734 5.17584C36.9957 4.90073 37.3165 4.64553 37.674 4.43331C37.8857 4.28973 38.0975 4.14615 38.3077 4.02248L25.0491 11.2708C24.9233 11.3411 24.819 11.3929 24.7131 11.4647C24.6072 11.5365 24.5213 11.6099 24.4154 11.6817C24.0763 11.9154 23.7371 12.1491 23.4148 12.4242C23.3288 12.4976 23.2444 12.551 23.1585 12.6244C23.0924 12.6993 23.0264 12.7743 22.9603 12.8492C22.6762 13.1474 22.3921 13.4456 22.1447 13.7867C22.0325 13.9382 21.902 14.0681 21.7883 14.2395C21.4271 14.752 21.1042 15.2876 20.8379 15.8678L4.20064 51.9074C3.98203 52.3911 3.80325 52.878 3.66273 53.3879C3.63179 53.5257 3.58251 53.6421 3.55157 53.7799C3.43412 54.2516 3.31666 54.7233 3.25895 55.1997C3.2558 55.2395 3.23432 55.2578 3.23117 55.2977L3.22959 55.3176C3.1378 55.9717 3.12724 56.6121 3.13502 57.2741C3.1303 57.3338 3.12557 57.3936 3.12085 57.4533C3.1177 57.4931 3.13446 57.5345 3.13131 57.5744C3.15012 58.0969 3.21034 58.6027 3.28889 59.1299C3.28574 59.1698 3.28416 59.1897 3.30093 59.2311C3.31455 59.3123 3.34808 59.3951 3.3617 59.4764C3.43136 59.8626 3.5225 60.2306 3.61208 60.6184C3.6257 60.6997 3.63932 60.7809 3.67285 60.8637C3.68804 60.925 3.72315 60.9879 3.73834 61.0493C3.86617 61.4602 3.994 61.8711 4.16324 62.2652C4.17843 62.3265 4.1952 62.368 4.2104 62.4293C4.20882 62.4492 4.22873 62.4508 4.22716 62.4707C4.42993 62.9476 4.65262 63.4262 4.91671 63.8879C4.9534 63.9309 4.96858 63.9922 4.98535 64.0337C5.02046 64.0965 5.05714 64.1395 5.09225 64.2024C5.40979 64.7486 5.74882 65.2764 6.12926 65.7874L6.1476 65.8089C6.27442 65.9793 6.44106 66.1528 6.56787 66.3231C6.67792 66.4521 6.78639 66.6009 6.91635 66.7314C7.083 66.9049 7.24964 67.0784 7.4362 67.2535C7.56617 67.384 7.67621 67.513 7.80775 67.6236C7.99431 67.7987 8.2207 67.9769 8.42718 68.1535C8.54037 68.2426 8.65199 68.3517 8.76519 68.4408C9.10478 68.7081 9.44594 68.9555 9.78868 69.183L45.4423 92.2227C49.1406 94.6193 53.2973 94.7676 56.5034 92.997L69.762 85.7487C66.5574 87.4993 62.4008 87.351 58.7009 84.9743L23.0473 61.9347C22.6846 61.7056 22.3434 61.4582 22.0039 61.1908C21.9106 61.1033 21.7974 61.0142 21.7041 60.9266C21.4777 60.7484 21.2529 60.5503 21.048 60.3537C20.9364 60.2447 20.8263 60.1158 20.6948 60.0052C20.5082 59.8301 20.3416 59.6566 20.1765 59.4632C20.0466 59.3327 19.9381 59.1838 19.8296 59.0349C19.6829 58.863 19.5362 58.6911 19.391 58.4993C19.0106 57.9882 18.6715 57.4604 18.354 56.9142C18.3021 56.8099 18.2303 56.7041 18.1785 56.5998C17.9343 56.1396 17.6917 55.6595 17.4889 55.1825C17.4538 55.1196 17.4386 55.0583 17.425 54.977C17.2557 54.5829 17.1279 54.172 17.0001 53.7611C16.9514 53.6169 16.9225 53.4744 16.8738 53.3302C16.7827 52.9623 16.6931 52.5745 16.6234 52.1882C16.593 52.0655 16.581 51.9644 16.5506 51.8417C16.4705 51.3344 16.4119 50.8087 16.3931 50.2862C16.381 50.185 16.3889 50.0855 16.3968 49.9859C16.389 49.3239 16.4011 48.6636 16.4913 48.0294C16.4945 47.9896 16.4976 47.9497 16.5207 47.9115C16.5983 47.4367 16.6959 46.9634 16.8133 46.4917C16.8443 46.3539 16.8935 46.2375 16.9245 46.0997C17.0849 45.5914 17.2438 45.1029 17.4624 44.6192L34.0996 8.57959C34.3659 7.99944 34.6904 7.44393 35.05 6.95131C35.1622 6.79986 35.2943 6.64998 35.4064 6.49853C35.6706 6.19877 35.9364 5.8791 36.2189 5.60084Z" fill="url(#paint0_linear_1_3662)"/>
<path d="M39.3465 34.2251C34.6824 44.2973 37.717 56.862 46.1283 62.2565C50.9145 65.3404 56.3982 65.4333 61.1133 63.0806L66.9111 66.8056L66.7171 58.6138C67.8891 57.2235 68.9391 55.6031 69.7642 53.7846C74.4284 43.7124 71.3938 31.1477 62.9825 25.7531C54.5713 20.3586 43.9908 24.1513 39.3465 34.2251ZM60.6526 45.5891L54.0387 47.3708L54.3167 59.3167L49.3973 43.2162L56.0604 41.3182L55.7332 29.4886L60.6526 45.5891Z" fill="white"/>
<defs>
<linearGradient id="paint0_linear_1_3662" x1="44.6612" y1="98.6041" x2="14.1688" y2="1.65796" gradientUnits="userSpaceOnUse">
<stop stop-color="#142F8D"/>
<stop offset="0.0951" stop-color="#163391"/>
<stop offset="0.1898" stop-color="#1A3D9D"/>
<stop offset="0.2843" stop-color="#224FB1"/>
<stop offset="0.3788" stop-color="#2E68CD"/>
<stop offset="0.4724" stop-color="#3C87F1"/>
<stop offset="0.5052" stop-color="#4294FF"/>
<stop offset="0.6095" stop-color="#3272D8"/>
<stop offset="0.7172" stop-color="#2555B8"/>
<stop offset="0.8208" stop-color="#1C40A0"/>
<stop offset="0.9174" stop-color="#163392"/>
<stop offset="1" stop-color="#142F8D"/>
</linearGradient>
</defs>
</svg>
