<svg width="229" height="31" viewBox="0 0 229 31" fill="none" xmlns="http://www.w3.org/2000/svg">
<path d="M9.27626 30.4806C5.84625 30.4806 3.16261 29.6958 0.934479 27.55L2.91565 25.5688C4.52913 27.2646 6.71336 27.9232 9.23784 27.9232C12.5855 27.9232 14.649 26.7268 14.649 24.3285C14.649 22.5504 13.6173 21.5626 11.2629 21.354L7.91523 21.0632C3.9474 20.7339 1.84549 18.9558 1.84549 15.6136C1.84549 11.8982 4.98463 9.66455 9.32016 9.66455C12.2123 9.66455 14.8137 10.367 16.6302 11.8543L14.6874 13.797C13.2441 12.683 11.3837 12.189 9.27626 12.189C6.30175 12.189 4.73218 13.4677 4.73218 15.5367C4.73218 17.2709 5.72551 18.3027 8.28293 18.5112L11.5483 18.8021C15.099 19.1314 17.5357 20.4979 17.5357 24.2956C17.5357 28.2085 14.188 30.4806 9.27626 30.4806Z" fill="#263959" fill-opacity="0.2"/>
<path d="M26.58 30.2281C23.1116 30.2281 21.3774 27.7914 21.3774 24.7785V12.3043H18.8145V10.0322H21.3774V3.67163H24.3519V10.0322H28.6874V12.3043H24.3519V24.6962C24.3519 26.5566 25.219 27.6707 27.1178 27.6707H28.6874V30.2336H26.58" fill="#263959" fill-opacity="0.2"/>
<path d="M44.0647 20.8546H38.3681C35.3113 20.8546 33.8241 22.0949 33.8241 24.4492C33.8241 26.8036 35.2674 27.9177 38.4944 27.9177C40.2286 27.9177 41.7597 27.7914 43.0384 26.5566C43.7409 25.8981 44.0702 24.7401 44.0702 23.0443V20.8546H44.0647ZM44.0647 30.2281V28.2854C42.4128 29.9373 40.9256 30.4751 38.198 30.4751C35.3882 30.4751 33.7363 29.9373 32.4576 28.6146C31.4642 27.6213 30.9319 26.0956 30.9319 24.4822C30.9319 20.9314 33.4125 18.6155 37.9511 18.6155H44.0647V16.6727C44.0647 13.6982 42.5774 12.211 38.8621 12.211C36.2607 12.211 34.9381 12.8311 33.7417 14.5214L31.7167 12.661C33.5332 10.3066 35.6022 9.64807 38.906 9.64807C44.3556 9.64807 47.0447 12.0024 47.0447 16.4203V30.2281H44.0647Z" fill="#263959" fill-opacity="0.2"/>
<path d="M58.6904 30.4806C53.5701 30.4806 49.6846 27.0122 49.6846 20.0698C49.6846 13.133 53.5701 9.65906 58.6904 9.65906C61.5003 9.65906 63.2729 10.3999 65.3803 12.672L63.3552 14.5708C61.8296 12.875 60.6277 12.2988 58.6904 12.2988C56.7093 12.2988 55.0574 13.0836 53.9817 14.6092C53.0323 15.9319 52.6591 17.5014 52.6591 20.0588C52.6591 22.6163 53.0323 24.1913 53.9817 25.5084C55.0574 27.0341 56.7093 27.8189 58.6904 27.8189C60.6332 27.8189 61.8296 27.1987 63.3552 25.5084L65.3803 27.4512C63.2729 29.7342 61.5003 30.4806 58.6904 30.4806Z" fill="#263959" fill-opacity="0.2"/>
<path d="M81.6631 30.2281L75.2202 19.8229L71.2524 24.3669V30.2281H68.2779V0.823364H71.2524V20.4869L80.4228 9.91151H84.1382L77.2398 17.6771L85.3346 30.2336H81.6631" fill="#263959" fill-opacity="0.2"/>
<path d="M97.3314 15.0921C96.7442 14.5049 95.9594 14.1921 94.9441 14.1921C93.9288 14.1921 93.1825 14.5049 92.5953 15.0921C91.5361 16.1513 91.4208 17.913 91.4208 20.0259C91.4208 22.1388 91.5361 23.9388 92.5953 24.998C93.1825 25.5852 93.9233 25.898 94.9441 25.898C95.9594 25.898 96.7442 25.5852 97.3314 24.998C98.3851 23.9443 98.5058 22.1388 98.5058 20.0259C98.5058 17.913 98.3906 16.1513 97.3314 15.0921ZM101.288 27.9725C100.037 29.3061 97.9625 30.4805 94.9441 30.4805C91.9312 30.4805 89.8952 29.3061 88.6439 27.9725C86.8054 26.0517 86.3334 23.7467 86.3334 20.0259C86.3334 16.3434 86.8054 14.0384 88.6439 12.1176C89.8952 10.7895 91.9312 9.60962 94.9441 9.60962C97.957 9.60962 100.032 10.7841 101.288 12.1176C103.127 14.0384 103.599 16.3434 103.599 20.0259C103.599 23.7467 103.127 26.0572 101.288 27.9725Z" fill="#263959" fill-opacity="0.2"/>
<path d="M115.036 30.2446H111.04L103.522 9.85119H108.884L113.033 22.4572L117.149 9.8457H122.51L115.036 30.2446Z" fill="#263959" fill-opacity="0.2"/>
<path d="M134.573 15.9538C134.024 14.7409 132.888 13.8409 131.165 13.8409C129.442 13.8409 128.306 14.7409 127.762 15.9538C127.45 16.7001 127.329 17.2434 127.291 18.1435H135.04C135.007 17.2489 134.886 16.7001 134.573 15.9538ZM127.291 21.6284C127.291 24.2516 128.893 26.167 131.752 26.167C133.986 26.167 135.078 25.5413 136.373 24.2461L139.468 27.2591C137.394 29.3335 135.396 30.4696 131.719 30.4696C126.906 30.4696 122.285 28.2798 122.285 20.0204C122.285 13.3634 125.886 9.60962 131.171 9.60962C136.845 9.60962 140.056 13.7586 140.056 19.3563V21.6284H127.291Z" fill="#263959" fill-opacity="0.2"/>
<path d="M153.666 15.405C152.881 14.6202 152.217 14.1921 150.966 14.1921C149.402 14.1921 147.678 15.3666 147.678 17.9514V30.2446H142.591V9.84561H147.563V11.8048C148.54 10.6304 150.499 9.61511 152.689 9.61511C154.687 9.61511 156.097 10.1255 157.502 11.5359L153.666 15.405Z" fill="#263959" fill-opacity="0.2"/>
<path d="M178.241 30.2446C174.054 30.2446 172.292 27.3085 172.292 24.4108V1.50388H177.38V24.098C177.38 25.3109 177.89 25.9365 179.18 25.9365H181.139V30.2446H178.241ZM166.113 13.7312V30.2446H161.025V13.7312H158.912V9.85664H161.025V7.3102C161.025 4.41253 162.825 1.47644 166.974 1.47644H169.872V5.78453H167.913C166.7 5.78453 166.113 6.44858 166.113 7.62301V9.85664H169.872V13.7312H166.113Z" fill="#263959" fill-opacity="0.2"/>
<path d="M192.867 15.0921C192.28 14.5049 191.495 14.1921 190.48 14.1921C189.464 14.1921 188.718 14.5049 188.131 15.0921C187.071 16.1513 186.956 17.913 186.956 20.0259C186.956 22.1388 187.071 23.9388 188.131 24.998C188.718 25.5852 189.464 25.898 190.48 25.898C191.495 25.898 192.28 25.5852 192.867 24.998C193.926 23.9443 194.041 22.1388 194.041 20.0259C194.041 17.913 193.926 16.1513 192.867 15.0921ZM196.824 27.9725C195.572 29.3061 193.498 30.4805 190.48 30.4805C187.461 30.4805 185.431 29.3061 184.179 27.9725C182.341 26.0517 181.869 23.7467 181.869 20.0259C181.869 16.3434 182.341 14.0384 184.179 12.1176C185.431 10.7895 187.467 9.60962 190.48 9.60962C193.492 9.60962 195.567 10.7841 196.824 12.1176C198.662 14.0384 199.134 16.3434 199.134 20.0259C199.134 23.7467 198.662 26.0572 196.824 27.9725Z" fill="#263959" fill-opacity="0.2"/>
<path d="M221.97 30.2446H217.782L213.518 17.4466L209.254 30.2446H205.067L198.805 9.8512H204.205L207.492 22.4572L211.641 9.8512H215.362L219.55 22.4572L222.837 9.8512H228.199L221.97 30.2446Z" fill="#263959" fill-opacity="0.2"/>
</svg>
