<svg width="110" height="110" viewBox="0 0 110 110" fill="none" xmlns="http://www.w3.org/2000/svg">
<g filter="url(#filter0_d_1_2701)">
<path d="M55 68C68.8071 68 80 56.8071 80 43C80 29.1929 68.8071 18 55 18C41.1929 18 30 29.1929 30 43C30 56.8071 41.1929 68 55 68Z" fill="white"/>
<path d="M55 68C68.8071 68 80 56.8071 80 43C80 29.1929 68.8071 18 55 18C41.1929 18 30 29.1929 30 43C30 56.8071 41.1929 68 55 68Z" stroke="white"/>
</g>
<path d="M62.2857 38.3493C61.75 38.6192 61.2143 38.7092 60.5893 38.7991C61.2143 38.4393 61.6607 37.8996 61.8393 37.1799C61.3036 37.5397 60.6786 37.7197 59.9643 37.8996C59.4286 37.3598 58.625 37 57.8214 37C56.3036 37 54.9643 38.3493 54.9643 39.9686C54.9643 40.2384 54.9643 40.4183 55.0536 40.5983C52.6429 40.5083 50.4107 39.3389 48.9821 37.5397C48.7143 37.9895 48.625 38.4393 48.625 39.069C48.625 40.0585 49.1607 40.9581 49.9643 41.4978C49.5179 41.4978 49.0714 41.3179 48.625 41.138C48.625 42.5773 49.6071 43.7467 50.9464 44.0166C50.6786 44.1066 50.4107 44.1066 50.1429 44.1066C49.9643 44.1066 49.7857 44.1066 49.6071 44.0166C49.9643 45.186 51.0357 46.0856 52.375 46.0856C51.3929 46.8952 50.1429 47.345 48.7143 47.345C48.4464 47.345 48.2679 47.345 48 47.345C49.3393 48.1546 50.8571 48.6943 52.4643 48.6943C57.8214 48.6943 60.7679 44.1965 60.7679 40.3284C60.7679 40.2384 60.7679 40.0585 60.7679 39.9686C61.3929 39.5188 61.9286 38.979 62.2857 38.3493Z" fill="#263959"/>
<defs>
<filter id="filter0_d_1_2701" x="0" y="0" width="110" height="110" filterUnits="userSpaceOnUse" color-interpolation-filters="sRGB">
<feFlood flood-opacity="0" result="BackgroundImageFix"/>
<feColorMatrix in="SourceAlpha" type="matrix" values="0 0 0 0 0 0 0 0 0 0 0 0 0 0 0 0 0 0 127 0" result="hardAlpha"/>
<feOffset dy="12"/>
<feGaussianBlur stdDeviation="15"/>
<feColorMatrix type="matrix" values="0 0 0 0 0 0 0 0 0 0 0 0 0 0 0 0 0 0 0.08 0"/>
<feBlend mode="normal" in2="BackgroundImageFix" result="effect1_dropShadow_1_2701"/>
<feBlend mode="normal" in="SourceGraphic" in2="effect1_dropShadow_1_2701" result="shape"/>
</filter>
</defs>
</svg>
